<svg xmlns="http://www.w3.org/2000/svg" version="1.0" viewBox="0 0 256 104"><path fill="#004080" fill-opacity=".1" d="M8.7 2.7c1.8.2 5 .2 7 0 2.1-.2.7-.4-3.2-.4-3.8 0-5.5.2-3.8.4m17 0c-.3.5 1.8.7 4.6.5 8.6-.5 9.6-.9 2.5-1.1-3.7 0-6.9.2-7.1.6m35.1 0c2.8.2 7.6.2 10.5 0 2.8-.2.5-.3-5.3-.3s-8.1.1-5.2.3"/><path fill="gray" fill-opacity=".1" d="M41.8 2.7c.6.2 1.8.2 2.5 0 .6-.3.1-.5-1.3-.5s-1.9.2-1.2.5m7 0c.7.3 1.6.2 1.9-.1.4-.3-.2-.6-1.3-.5-1.1 0-1.4.3-.6.6m-8.4 27.8c0 14.8.2 21.1.3 13.8.2-7.2.2-19.4 0-27-.1-7.6-.3-1.7-.3 13.2m29.9 6.2c.9.2 2.3.2 3 0 .6-.3-.1-.5-1.8-.5-1.6 0-2.2.2-1.2.5m-13.7 4c-.6 1.4-.5 1.5.5.6.7-.7 1-1.5.7-1.8s-.9.2-1.2 1.2m19.2 7c.7.3 1.6.2 1.9-.1.4-.3-.2-.6-1.3-.5-1.1 0-1.4.3-.6.6"/><path fill="#004080" fill-opacity=".7" d="M98.3 2.7c1.5.2 3.7.2 5 0 1.2-.2 0-.4-2.8-.4-2.7 0-3.8.2-2.2.4M253.4 30c0 14.6.2 20.5.3 13.2.2-7.2.2-19.2 0-26.5-.1-7.2-.3-1.3-.3 13.3M14.3 14.5c0 4.4.2 6.1.4 3.7.2-2.3.2-5.9 0-8-.2-2-.4-.1-.4 4.3m64 4.2c.9.2 2.5.2 3.5 0 .9-.3.1-.5-1.8-.5s-2.7.2-1.7.5m153 5c.9.2 2.5.2 3.5 0 .9-.3.1-.5-1.8-.5s-2.7.2-1.7.5m13 0c.9.2 2.5.2 3.5 0 .9-.3.1-.5-1.8-.5s-2.7.2-1.7.5m-112 6c.9.2 2.5.2 3.5 0 .9-.3.1-.5-1.8-.5s-2.7.2-1.7.5m83 0c.9.2 2.3.2 3 0 .6-.3-.1-.5-1.8-.5-1.6 0-2.2.2-1.2.5m-65.6 28c18.9.2 49.7.2 68.5 0 18.9-.1 3.5-.2-34.2-.2s-53.1.1-34.3.2"/><path fill="#004080" fill-opacity=".6" d="M56.2 6c0 1.9.2 2.7.5 1.7.2-.9.2-2.5 0-3.5-.3-.9-.5-.1-.5 1.8m-21.9 7.5c0 4.4.2 6.1.4 3.7.2-2.3.2-5.9 0-8-.2-2-.4-.1-.4 4.3m93 5.2c2 .2 5.4.2 7.5 0 2-.2.3-.4-3.8-.4s-5.8.2-3.7.4m23.5 0c.6.2 1.8.2 2.5 0 .6-.3.1-.5-1.3-.5s-1.9.2-1.2.5m17 0c.7.3 1.6.2 1.9-.1.4-.3-.2-.6-1.3-.5-1.1 0-1.4.3-.6.6m42.5 0c2 .2 5.4.2 7.5 0 2-.2.3-.4-3.8-.4s-5.8.2-3.7.4m24.5 0c2.9.2 7.4.2 10 0s.2-.3-5.3-.3-7.6.1-4.7.3m-213 12c.7.3 1.6.2 1.9-.1.4-.3-.2-.6-1.3-.5-1.1 0-1.4.3-.6.6m-1 2c.7.3 1.6.2 1.9-.1.4-.3-.2-.6-1.3-.5-1.1 0-1.4.3-.6.6m111 9c1.2.2 3.2.2 4.5 0 1.2-.2.2-.4-2.3-.4s-3.5.2-2.2.4m83 0c1.2.2 3.2.2 4.5 0 1.2-.2.2-.4-2.3-.4s-3.5.2-2.2.4"/><path fill="#004080" fill-opacity=".5" d="M150.3 2.7c19.2.2 50.2.2 69 0 18.8-.1 3.2-.2-34.8-.2-37.9 0-53.3.1-34.2.2m3.1 33.8c0 4.9.1 7.1.3 4.8s.2-6.4 0-9-.3-.8-.3 4.2"/><path fill="#004080" fill-opacity=".4" d="M148.4 32.5c0 7.1.1 9.9.3 6.2s.2-9.6 0-13-.3-.4-.3 6.8M128.2 26c0 1.9.2 2.7.5 1.7.2-.9.2-2.5 0-3.5-.3-.9-.5-.1-.5 1.8m108.2 8.5c0 6 .1 8.4.3 5.2s.2-8.1 0-11-.3-.3-.3 5.8m-108.1 3c0 2.2.2 3 .4 1.7.2-1.2.2-3 0-4-.3-.9-.5.1-.4 2.3m68.8.1c0 1.1.3 1.4.6.6.3-.7.2-1.6-.1-1.9-.3-.4-.6.2-.5 1.3"/><path fill="#004080" fill-opacity=".2" d="M95.5 30.7v27.8l5 .1 5 .1-4.7-.4-4.8-.4-.3-27.5L95.5 3zm19.9-.7c0 14.6.2 20.5.3 13.2.2-7.2.2-19.2 0-26.5-.1-7.2-.3-1.3-.3 13.3m73.4-11.3c.7.3 1.6.2 1.9-.1.4-.3-.2-.6-1.3-.5-1.1 0-1.4.3-.6.6m-131 11c.7.3 1.6.2 1.9-.1.4-.3-.2-.6-1.3-.5-1.1 0-1.4.3-.6.6"/><g fill="#004080" fill-opacity=".9" stroke-opacity=".9" stroke-width="0"><path d="M9.4 4.2c-.4.6-.3.8.4.4 1.6-1 2.1 1.8 2.3 13.1.2 5.7.5 10.1.7 9.8.2-.2 1.5.8 2.8 2.2s2.4 2.1 2.4 1.6c0-.6-.7-1.6-1.5-2.3s-1.2-1.7-.8-2.3.1-.7-.7-.2c-1 .6-1.2.3-.8-1.3.4-1.2.2-2-.2-1.7-.5.3-1-3.9-1.2-9.4-.2-7.5 0-9.7.9-9 1.2 1.1 2.7-.3 1.6-1.5-1.1-1-5.1-.7-5.9.6M29 4c0 .5.7.7 1.5.4.8-.4 2.1-.1 2.8.5 1 .8 1.4.7 1.4-.4 0-1-1-1.5-2.9-1.5-1.5 0-2.8.4-2.8 1m37.7-.3c-7.7.3-8.8.6-8.5 2.1.3 1.4 1.6 1.7 7.3 1.8l7 .1-7-.7-7-.6 8.3-.2c6.1-.2 8.1.1 7.6 1-.4.7-.3.8.5.4 1.4-.9 5.3.3 4.6 1.4-.9 1.4 1.6 2.3 2.8 1.1.9-.9.7-1-.8-.5-1.8.7-1.9.6-.5-1.1.8-1 1.1-1.6.5-1.3-1.1.7-3.7-1.7-2.8-2.5.3-.3-.5-.3-1.8 0-1.5.4-2 .3-1.5-.5.4-.7.6-1.1.4-1s-4.3.4-9.1.5m29.8 26.8V57h7.5V4h-7.5zm6.5-.5c0 24.3-.1 25-2 25s-2-.7-2-25 .1-25 2-25 2 .7 2 25m14 0v26h135V4H117zm134-18.8v5.3l-11-.3c-8.7-.3-11.3 0-12.5 1.2-3.1 3.1-.9 8.6 3.4 8.6 2 0 2.1.6 2.2 10 .2 11.8.2 11.6 1.3 12.7.5.5.6.3.2-.5-.4-.6-.2-1.2.3-1.2.6 0 1.1.5 1.1 1 0 .6 2 .9 4.5.8 2.6-.1 4.5-.6 4.4-1.2s-.1-5.7 0-11.2l.1-10.2 3-.4 3-.5V55H119V6h132zm-.5 9.8c0 3.2-.3 3.5-3.2 3.8l-3.3.3-.1 10.7c-.1 5.9-.1 10.9-.1 11.2s-1.3.7-3 .8c-5.2.4-5.8-.9-5.8-12.4V25h-2.8c-3.1 0-5.2-1.6-5.2-4 0-3.4 2.2-4.1 13-3.8l10.5.3z"/><path d="M184 16.2c0 .5-.5.6-1.1.3-.6-.4-2.1.3-3.4 1.5-1.9 1.8-2.3 3.2-2.3 7.8.1 5.9 1.1 9.2 3 9.2.6 0 .5-.6-.3-1.7-1.2-1.4-1.2-1.6 0-.9.9.6 1.2.5.9-.5-.3-.8-.9-1.3-1.4-1.2s-.9-2-.9-4.7c0-2.6.3-4.6.6-4.4s1.7-.8 2.9-2.1c1.8-1.9 3.4-2.5 6.7-2.5 6.2 0 8.1 1.3 7.8 5-.1 1.7-.4 3.2-.6 3.5-.3.2-2.3-.2-4.4-1-4.3-1.4-6.2-1.1-4.6.9.6.7.8 1.6.4 2s0 .4 1 0c.9-.3 1.7-1.1 1.7-1.7s.3-.7.6-.4c.4.4.1 1.3-.6 2.2-1.1 1.3-1 1.4.5.9 1.3-.5 1.6-.4 1 .5-.6 1-.3 1.1 1.3.2 1.2-.6 2.4-1.5 2.7-2.1.3-.5 1.3-.7 2.3-.4 1.4.5 1.5.4.2-.5-1-.7-1.1-1.1-.2-1.1.7 0 1.2-1.3 1.2-3s-.5-3-1.2-3c-1 0-.9-.3.1-.9.9-.6 1-1.1.2-1.5-.6-.4-1.5-.4-2.1-.1-.5.3-1 .2-1-.3s-2.5-1-5.5-1-5.5.5-5.5 1m-2 1.2c0 .2-.8 1-1.7 1.7-1.6 1.3-1.7 1.2-.4-.4s2.1-2.1 2.1-1.3m15.7 5.8c-.3.8-.6.5-.6-.6-.1-1.1.2-1.7.5-1.3.3.3.4 1.2.1 1.9m-3.7 3.2c0 .3-.4.8-1 1.1-.5.3-1 .1-1-.4 0-.6.5-1.1 1-1.1.6 0 1 .2 1 .4m-73.9 6.1v16.4h21.6l.1-3.6c.2-4.4-1.7-6.3-6.2-6.3s-4.8-2-.3-2.1c1.7-.1 3.5-.1 3.8-.1.4.1.6-2 .6-4.6 0-4.8 0-4.8-3.5-5.1-2-.1-3.8-.4-4.1-.6-.4-.5 6-.9 8.5-.6.6.1 1.1-1.7 1.2-3.9.1-2.6-.2-4-1.1-4-.8 0-.7-.3.2-.9 1-.6-2.6-1-9.7-1h-11.1zm19.7-14.2c1.2 1.4 1.3 6.6.2 6.5-.3 0-2.6 0-5.2.1-3.5.1-4.8.5-4.8 1.5s1.4 1.6 4.3 1.8c3.8.3 4.2.6 4.5 3.2.4 3.4-1 4.6-5.5 4.6-2.6 0-3.3.4-3.3 2 0 1.7.7 2 4.4 2 4.9 0 6.7 1.5 6.4 5.3l-.2 2.6-9.7-.1-9.7-.1-.1-15.2V17.3l8.8-.2c6.5-.1 9.1.2 9.9 1.2"/><path d="M122.4 19.3c-.2.7-.3 6.9-.2 13.8l.3 12.4.5-13.8c.3-7.5.4-13.7.2-13.7-.1 0-.5.6-.8 1.3m9.9 15.4c.9.2 2.5.2 3.5 0 .9-.3.1-.5-1.8-.5s-2.7.2-1.7.5m13.8-2.6v16.5l4 .2c2.2.2 3.9-.2 3.9-.8 0-.5.5-1 1.1-1 .5 0 .7.6.3 1.2-.4.7-.3.9.1.5.9-.8 1.3-2.4 1.8-6.9.1-1.4.6-2.4 1-2.1.5.3.6 1 .4 1.7-.3.7.1 2.6.8 4.3 1.3 3.1 1.5 3.2 7.7 3l6.3-.2.3-15.3c.3-12 0-15.2-1-15.2s-1-.2.1-.9c.8-.5-.8-.9-4.4-.9s-5.2.4-4.4.9c1 .6 1.1.9.2.9-.7 0-1.3.9-1.3 2.1 0 1.1-.4 1.8-.9 1.4-.6-.3-1.5.5-2.2 1.7-1.2 2.2-1.1 2.2.6.8s1.8-1.4.5 1-1.2 2.4.5 1c1.1-.8 1.6-1 1.1-.3-.4.7-.2 2.1.3 3 .8 1.4 1.1.4 1.2-4.2l.3-6 .6 7 .7 7V25c0-7.5 0-7.5 2.7-7.5h2.7l.2 14.8c.2 11.7-.1 14.6-1.1 14.2-.7-.3-1 0-.7.5.4.6-.5 1-2 1-1.6 0-2.4-.4-1.9-1.1.5-.8.1-.8-1.4 0s-2.3.8-2.8-.1q-.75-1.05.6-.3c.8.5 1.1.3.8-.6-.3-.8-1.1-1.3-1.7-1.1-.7.1-1-.2-.6-.7.3-.6-.5-3.2-1.9-5.9s-2.2-5.2-1.9-5.6c.4-.3.1-.6-.5-.6q-1.2 0-1.2 6.9c0 7.5-1.2 9.5-5.2 8.9-2.3-.3-2.3-.5-2.6-14.2-.2-9.3.1-14.3.9-15.2 1.4-1.7 8.4-2 7.3-.2-.4.7-.3.8.4.4 1.1-.7 3.5 2.6 2.7 3.8-.3.3.2 0 1.1-.8 1.2-1 1.3-1.8.5-3.3-.8-1.6-2.2-2-6.6-2.2-3.9-.1-5.5.2-5.5 1.1s-.3.9-1-.2c-.6-.9-.9 4.4-.9 15.1m13-13.4c1.3 1.6 1.2 1.7-.3.4-1.7-1.3-2.2-2.1-1.4-2.1.2 0 1 .8 1.7 1.7m13.6 20c-.2 3.8-.3.7-.3-6.7s.1-10.5.3-6.8c.2 3.8.2 9.8 0 13.5m30.4-6.2v16.3l10 .1c7.5.1 9.9-.1 9.9-1.1s.2-1 .9.1c.6.9.9-.4.8-3.6v-4.9l-4.6-.3c-7-.3-7.3-1.7-.6-2.3 4-.4 4-.4 4.2-4.9l.1-4.6-4.1-.1c-2.2-.1-4.3-.4-4.5-.7-.5-.5 5.8-.9 8.4-.6 1.6.2 1.6-6.9-.1-8.5-1.1-1.1-3.8-1.4-10.9-1.3l-9.5.1zm19.7-14.2c1.2 1.4 1.3 6.6.2 6.5-.3 0-2.6 0-5.2.1-3.6.1-4.8.5-4.8 1.6 0 1.3 4 2 9 1.7.3 0 .5 1.7.5 3.8s-.2 3.8-.5 3.8-2.4 0-4.7.1c-3.6.1-4.3.4-4.3 2 0 1.7.8 2 5.3 2.3 4.6.3 5.2.6 5.5 2.6.6 4.1-1.4 5.2-9.5 5.2-5.1 0-7.2-.3-6.7-1.1s.1-.8-1.4 0c-2 1.1-2 .9-2-14.3V17.3l8.7-.2c6.5-.1 9.1.2 9.9 1.2"/><path d="M205.4 32.5c0 7.1.1 9.9.3 6.2s.2-9.6 0-13-.3-.4-.3 6.8m10.4 2.2c1.2.2 3 .2 4 0 .9-.3-.1-.5-2.3-.4-2.2 0-3 .2-1.7.4m-21.9-5c-.7 1-.9 1.5-.4 1 1.2-1 4.6 2.3 3.8 3.7-.4.6-.1.6.8-.1 2.5-2.1.7 7.2-2 10-1.1 1.3-1.8 2.7-1.4 3.2.5.4-.3.2-1.6-.5-1.5-.8-2.1-.8-1.7-.1.5.7-.8 1.1-3.9 1.1-2.5 0-4.4-.3-4.2-.8.3-.4-.6-.8-1.9-.8-1.4-.1-2.1.2-1.7.9q.45.9-.6.3c-.9-.6-.9-1.1.1-2.4 1-1.2 1-1.4.1-.8-.9.5-1.3-.2-1.3-2.4q0-3.15 1.2-2.4c.7.4.8.3.4-.4s-.1-1.2.8-1.2c.8 0 1.8.4 2.1 1 .3.5 2.2 1 4.1 1 2.5 0 3.4-.4 3.4-1.6 0-1.1-.5-1.4-1.6-1-1.5.6-1.5.4-.3-1 1.3-1.6 1.2-1.6-1-.5-1.9 1.1-2.2 1.1-1.6 0 .6-.9.3-1.1-.8-.6-1 .4-1.6.2-1.4-.5.1-.6-.3-1.2-1-1.5-1.2-.4-1.2 1.4-.1 3.3.4.6-.4.9-2.1.8-2.7-.2-2.8-.1-2.9 5.1 0 3.2.5 5.5 1.2 5.8.6.3 4.8.5 9.3.5 7.2.1 8.3-.2 10.3-2.3 1.2-1.3 1.9-2.8 1.5-3.4-.3-.6-.2-1.1.4-1.1 1.7 0 .7-9.7-1.3-11.9-2.3-2.6-3-2.6-4.7-.4m4.2 1c1.3 1.6 1.2 1.7-.3.4-1.7-1.3-2.2-2.1-1.4-2.1.2 0 1 .8 1.7 1.7m-.5 15.1c-1.7 1.6-1.8 1.6-.5-.5.7-1.2 1.5-2 1.8-1.7.3.2-.3 1.2-1.3 2.2"/><path d="M186.8 41.7c.7.3 1.6.2 1.9-.1.4-.3-.2-.6-1.3-.5-1.1 0-1.4.3-.6.6M30.4 6.2c-.4.7-.3.8.4.4.9-.5 1.2 1.8 1.2 8.6 0 6.6-.3 8.9-1 7.8-.8-1.1-.9-.7-.4 1.4.6 2.3.4 2.7-.7 2.1-.8-.5-1.1-.5-.7 0 .4.4.3 1.4-.3 2.1-.7.8-.6 1.4.2 2q1.05.6.6-.3c-.4-.6 0-1.6.8-2.3s1.5-1.9 1.5-2.7.3-1.2.8-1c.4.3.6-3.9.4-9.4-.3-9.2-1.1-11.6-2.8-8.7M83.2 16c0 1.4.2 1.9.5 1.2.2-.6.2-1.8 0-2.5-.3-.6-.5-.1-.5 1.3m-15.4.4c.3.5-.5.7-1.6.4-1.4-.4-2-.2-1.5.5.4.7 0 .8-1.3.3-1-.4-1.6-.4-1.2-.1.3.4-.2 1.5-1.3 2.6-1 1-1.9 2.6-1.9 3.5 0 .8-.4 1.3-.9 1-.5-.4-.7.3-.4 1.4.5 1.8.8 1.6 2.8-1.3 1.2-1.7 2.7-3.1 3.4-2.9.7.1.9-.2.5-.9-.5-.9-.2-1 1.1-.5 1.4.5 1.6.4.7-.7-1-1.1-.1-1.3 4.6-1.2 3.6.2 5-.1 3.7-.6-1.4-.5-.7-.8 2.8-.8 2.6-.1 4.7-.5 4.7-1.1s-3-.9-7.4-.7c-4.1.1-7.1.6-6.8 1.1M64 19.3c0 .2-1 1.2-2.2 2.3l-2.3 1.9 1.9-2.3c1.8-2.1 2.6-2.7 2.6-1.9"/></g><g fill="#004080" stroke-width="0"><path d="M9.4 4.6C10.6 5.8 11 8.3 11 15.3c0 7.5.4 9.8 2 12.5 1.3 2.2 2.6 3.2 3.5 2.8.8-.3 1.5-.1 1.5.4 0 1.5 7.8 1.2 10.9-.5 3.9-1.9 5.1-6 5.1-16.6 0-7.3.3-9 1.8-9.8.9-.6 1.2-1.1.5-1.1-.6 0-1.4.4-1.7.9s-1.4.7-2.4.5c-1.5-.5-1.7.5-1.7 10.6 0 11 0 11.2-2.8 13.6-3.7 3.2-7.7 3.1-10.8-.2-2.2-2.3-2.4-3.6-2.7-13-.4-10.1-.3-10.4 2-11.3 1.6-.7 1.8-1 .6-1-.9-.1-2 .4-2.3.9-.4.6-1 .8-1.4.6-.4-.3-.6 1-.4 2.7.8 9.8.9 19.6.2 18.5-.5-.7-.9-5.3-.9-10.1C12 7.1 11 3 8.9 3c-.6 0-.3.7.5 1.6m23.4 10.9c-.3 9.6-.5 10.6-2.8 12.7l-2.4 2.3 1.9-2.4c1.7-2 2-3.8 2-12.7 0-5.7.4-10.4.8-10.4.5 0 .7 4.7.5 10.5M16.6 29.7c-.7.7-2.6-.7-2.6-1.9 0-.6.6-.6 1.5.2.9.7 1.3 1.5 1.1 1.7M57 6.2c0 2.5.3 2.9 1.2 2 1.7-1.7 15-1.5 19.6.3 2.3 1 3.8 2.3 3.9 3.4.1 1.6-.9 1.9-6.5 2.5-9.3 1-14.9 3.6-16.7 8-.8 2-1.5 4.2-1.5 5.1 0 2.6 2.4 1.6 4-1.8 2-4.2 7.4-6.8 15.6-7.5l6.4-.5v-3.4c0-4.9-2.4-8.9-6.1-10.2-1.8-.6-7-1.1-11.5-1.1H57zm19.8-1.1c1.7.6 3.3 1.6 3.6 2.4.4 1.1-.2 1.1-3.1-.1-2.4-1.1-6.1-1.4-11.4-1.2-5.8.2-7.9 0-7.9-1 0-1.5 14.3-1.7 18.8-.1M82 15.9c0 .4-2.7 1.1-6 1.4-7.5.6-12.8 3.2-15.7 7.6q-3.75 5.55-1.2-1.8c.7-1.8 2.4-3.8 4.2-4.7C68.1 15.9 82 14 82 15.9"/><path d="m61.4 21.2-1.9 2.3 2.3-1.9c2.1-1.8 2.7-2.6 1.9-2.6-.2 0-1.2 1-2.3 2.2M99.8 3.7l4.2.4v52.8l-4.2.4-4.3.4 4.8.1 4.7.2V3l-4.7.2-4.8.1zM116 30v27h137V3H116zm136 0v26H117V4h135z"/><path d="M119 30.5V55h132l-.1-24.5-.1-24.5H119zm76-14.4c0 .5.6.6 1.4.3s1.7-.1 2 .4c.4.6-2 .8-6.5.5-6.6-.5-7.2-.4-9.8 2.1-1.5 1.4-2.9 2.4-3.2 2.2-.2-.2-.4 1.7-.4 4.4s.4 4.8.9 4.7 1.1.4 1.4 1.2c.3 1 0 1.1-.9.5-1.2-.7-1.2-.5 0 .9.8 1.1.9 1.7.3 1.7-1.9 0-2.9-3.3-3-9.2 0-4.6.4-6 2.3-7.8 1.3-1.2 2.8-1.9 3.4-1.5.6.3 1.1.2 1.1-.3s2.5-1 5.5-1 5.5.4 5.5.9m-53.3.6c-.3.2-5 .5-10.6.5h-10v15.2l.1 15.3 9.8.1 9.8.1-.2-3.5c-.1-1.9.2-3.4.6-3.4s.7 1.8.6 3.9l-.1 4h-21.6V16.1h11c6.1 0 10.9.3 10.6.6m5.6 15.5.2 15.3h3.3c1.7 0 3.2.3 3.2.8 0 .4-1.8.7-3.9.5l-4-.2V32.2c0-9 .2-16.2.5-15.9s.6 7.4.7 15.9m12.8-14c.5 1 .7 2.3.4 2.8-.7 1.2-2.5.4-2.5-1.1 0-.6.6-.7 1.3-.3.9.6.9.4-.1-.8-.9-1.1-2.8-1.6-6.2-1.5-2.8.1-5-.1-5-.6 0-.4 2.5-.7 5.5-.6 4.3.2 5.8.6 6.6 2.1m13.5-1.4c-.3.3-2.6.5-5.1.5s-4.8-.2-5.1-.5 2-.6 5.1-.6 5.4.3 5.1.6m49.4-.1c0 .4-4.2.7-9.4.6l-9.4-.2v30.6l9.4-.1c5.2 0 9.4.3 9.4.7s-4.5.7-9.9.6l-10-.1V16.2l10-.1c5.4-.1 9.9.2 9.9.6m24-.1c-8.3.8-19 .8-19 .1 0-.4 5.1-.6 11.3-.5 6.1.1 9.6.3 7.7.4M139.5 21c0 2.3-.4 2.5-5.2 2.8-4.9.3-5.3.5-5.3 2.8 0 2.2.4 2.4 4.6 2.4 4.4 0 4.5.1 4.2 2.7-.3 2.5-.7 2.8-4.5 3.1-4 .3-4.3.5-4.3 3.2 0 2.8.2 2.9 5.3 3.2 4.8.3 5.2.5 5.2 2.8 0 2.4-.3 2.5-7.3 2.8-4.6.2-7.9-.2-8.8-.9-1.1-.9-1.4-4.1-1.4-13.9 0-6.9.3-13 .7-13.4s4.3-.5 8.8-.4c7.8.3 8 .4 8 2.8m2.3 1c-.1 2.2-.6 4-1.2 3.9-2.5-.3-8.9.1-8.5.6.3.2 2.1.5 4.1.6 3.5.3 3.5.3 3.5 5.1 0 2.6-.2 4.7-.6 4.6-.3 0-2.1 0-3.8.1-4.7.2-4.1 2.1.7 2.1 2.2 0 4 .3 4 .7 0 .5-2.2.6-5 .5-4.1-.3-5-.7-5-2.3 0-1.5.7-1.9 3.3-1.9 4.5 0 5.9-1.2 5.5-4.6-.3-2.6-.7-2.9-4.5-3.2-2.9-.2-4.3-.8-4.3-1.8s1.2-1.4 4.4-1.4c4.8 0 7.1-1.8 6.3-5-.3-1.1-.1-2 .4-2s.8 1.8.7 4m15.7-3c-.2.4 1.3 4 3.5 8.1l3.9 7.4.3-8 .3-8h6l.3 12.9c.3 13.6-.3 15.6-4.3 15.6-2.7 0-4.5-2-7.9-8.8-1.4-2.8-2.9-5.2-3.1-5.2-.3 0 .1 1.3 1 3 1.7 3.2 1.9 4.4.8 3.7-.5-.3-.9.7-1 2.1-.5 4.5-.9 6.1-1.8 6.9-.4.4-.5.2-.1-.5.4-.6.4-1.2-.1-1.2-.4 0-.6-3.5-.3-7.9.3-4.3.3-8.7 0-9.7s-.7 2.4-1 7.6c-.5 9.3-.5 9.5-3 9.5h-2.5l-.3-12.9c-.1-7.2 0-13.6.3-14.3.3-.9 1.9-1.3 4.9-1.2 2.5.2 4.3.6 4.1.9m6.7 5.2c-.3 4.6-.6 5.8-1.4 4.5-.5-.9-.6-2.2-.2-2.9.4-.6.3-.8-.3-.5-1.2.8-2.6-2-1.7-3.4.3-.5 1-.7 1.5-.4.5.4.9-.3.9-1.4 0-1.2.3-2.1.8-2.1.4 0 .5 2.8.4 6.2m9.6 9-.3 15.3-6.3.2c-6.2.2-6.4.1-7.7-3-1.4-3.5-.9-7.1.7-4.3.5.9.6 2.1.3 2.6-.4.6-.1.9.6.8.6-.2 1.4.3 1.7 1.1q.45 1.35-.9.6c-.8-.5-1.1-.4-.6 0 .4.5 2.5 1 4.6 1.2 6.7.6 7.3-.8 6.9-16.3-.2-7.4.1-13.4.5-13.4.5 0 .7 6.9.5 15.2m25-14.3c.7.2 0 6.1-.8 6.1-.5 0-.7-.6-.4-1.4s.1-2.3-.5-3.3c-1-1.5-1-1.4-.5.8.7 3.4-.5 4.1-4.4 2.7-2.7-1.1-3.5-1-4.9.4-1.5 1.6-1.4 1.8 1.7 3.5 6.6 3.7 9 6.3 9 10 0 5.1-4.5 9.3-9.9 9.3-6.1 0-9.1-1.7-9.1-5.3 0-2.4.3-2.8 1.8-2.1.9.4 3.6.9 6 1.2 3.7.4 4.2.2 4.2-1.7 0-1.3-1.2-2.6-3.2-3.7-5.7-2.9-7.8-5.4-7.8-9.5 0-2.9.6-4.2 2.7-5.9 2.4-1.9 3.7-2.1 9.3-1.7 3.6.3 6.6.6 6.8.6m23.7 2.1c0 2.3-.4 2.5-5.2 2.8-4.9.3-5.3.5-5.3 2.8 0 2.2.4 2.4 4.5 2.4 4.3 0 4.5.1 4.5 3s-.2 3-4.5 3-4.5.1-4.5 3c0 3 0 3 5.6 3 5.4 0 5.5 0 5.2 2.7s-.5 2.8-7.6 3.1c-4.6.2-7.9-.2-8.8-.9-1.1-.9-1.4-4-1.4-12.9 0-6.5.3-12.6.6-13.5.5-1.3 2-1.5 8.8-1.3 7.9.3 8.1.4 8.1 2.8m2.3 1c-.1 2.2-.6 4-1.2 3.9-2.6-.3-8.9.1-8.4.6.2.3 2.3.6 4.5.7l4.1.1-.1 4.6c-.2 4.5-.2 4.5-4.2 4.9-6.7.6-6.4 2 .6 2.3l4.6.3v4.8c.1 2.7-.2 4.7-.5 4.4s-.5-2.3-.6-4.3l-.1-3.8-5.2-.3c-4.4-.3-5.3-.6-5.3-2.2 0-1.5.9-1.9 4.3-2.2 4.1-.3 4.2-.4 4.2-3.8s-.1-3.5-4.2-3.8c-2.9-.2-4.3-.8-4.3-1.8s1.2-1.4 4.4-1.4c4.8 0 7.1-1.8 6.3-5-.3-1.1-.1-2 .4-2s.8 1.8.7 4m2.7-1c0 1.6-.3 3-.7 3-.5 0-.8-1.4-.8-3 0-1.7.3-3 .8-3 .4 0 .7 1.3.7 3m22.5 0c0 2.8-.3 3-3.5 3h-3.4l-.3 11.2-.3 11.3h-6l-.3-11.3-.3-11.2h-3.5c-3.6 0-5.1-1.7-4-4.5.4-1.2 2.6-1.5 11.1-1.5H250zm-54.2 4.5c1.3.2 2.7.7 3 1.1.4.4-.1.4-1 .1s-2.2.1-2.9.9c-.9 1.2-.9 1.3.3.9 2.5-1 5.2 3.2 5.4 8.6.1 2.7-.2 4.9-.7 4.9-.6 0-.7.5-.4 1.1.4.6-.3 2.1-1.5 3.4-2 2.1-3.1 2.4-10.3 2.3-4.5 0-8.7-.2-9.3-.5-.7-.3-1.2-2.6-1.2-5.8.1-5.2.2-5.3 2.9-5.1 1.7.1 2.5-.2 2.1-.8-1.1-1.9-1.1-3.7.1-3.3.7.3 1.1 1 .9 1.6-.1.7.2 1 .7.7 1.3-.8 4.2.4 3.5 1.5-.3.5.2.6 1 .3 1.1-.4 1.6 0 1.6 1 0 1.9-5.9 2.3-7.7.5-1.9-1.9-4.3-.2-4.3 3 0 4.2 4.2 6.3 11.5 5.9 2.9-.1 5.2-.5 5-.7-.3-.2.7-1.7 2-3.3 4.9-5.7 2.5-11.8-6.3-16.2-3.7-1.9-3.3-4.1.7-3.2 1.4.4 3.7.8 4.9 1.1m39.2 9.9c0 10.7.7 12.6 4.5 12.6s4.5-1.9 4.5-12.7V25l3.3.1c3 .2 3 .2.5.6l-2.8.4-.1 10.2c-.1 5.6-.1 10.7 0 11.3s-1.8 1.1-4.4 1.2c-2.5.1-4.5-.2-4.5-.8 0-.5-.5-1-1.1-1-.5 0-.7.6-.3 1.2.4.8.3 1-.2.5-1.1-1.1-1.1-.9-1.3-12.7-.1-10-.1-10-2.6-10-1.4 0-2.5-.4-2.5-.8s1.6-.6 3.5-.4l3.5.4z"/><path d="M179.9 18.7c-1.3 1.6-1.2 1.7.4.4s2.1-2.1 1.3-2.1c-.2 0-1 .8-1.7 1.7m12.1 8.4c0 .5.5.7 1 .4.6-.3 1-.8 1-1.1 0-.2-.4-.4-1-.4-.5 0-1 .5-1 1.1m4 2.3c0 .2.8 1 1.8 1.7 1.5 1.3 1.6 1.2.3-.4s-2.1-2.1-2.1-1.3m1.1 15.9c-1.3 2.1-1.2 2.1.5.5 1-1 1.6-2 1.3-2.2-.3-.3-1.1.5-1.8 1.7M96.4 30.5c0 14.3.2 20 .3 12.7.2-7.3.2-19 0-26-.1-7-.3-1-.3 13.3M99 30c0 24.3.1 25 2 25s2-.7 2-25-.1-25-2-25-2 .7-2 25m-33.8-6.1c-1.1.7-1.1.9.1 1.4.9.3 1.8-.1 2.1-.9.6-1.6-.2-1.8-2.2-.5"/></g><path fill="gray" fill-opacity=".9" d="m41.2 30.2.3 27.3.5-27 .5-27L43 30l.5 26.5.3-26.8C44 6.5 43.8 3 42.5 3S41 6.6 41.2 30.2m8-.5.2 26.8L50 30l.5-26.5.5 26 .6 26-.1-25.9c0-19.8-.3-26-1.2-26.4-1-.3-1.3 5.4-1.1 26.5M31.8 44c-.2 6.6 0 12 .5 12 .4 0 .7-5.4.7-12s-.2-12-.4-12c-.3 0-.6 5.4-.8 12M58 34c0 .6 3 .8 7.8.6 4.7-.3 9.2.1 11.5.9 3.8 1.3 3.8 1.3 2.1-.6-1.5-1.6-3.1-1.9-11.6-1.9-5.8 0-9.8.4-9.8 1M12 44.8c-.5 10.7-.4 11.2 1.5 11.2 1.3 0 1.6-.3.8-.8S13 50.8 12.8 44l-.3-10.5zm56.7-.6c.2.5-.4.8-1.5.8s-3.1.9-4.4 2c-1.4 1-2.9 1.6-3.2 1.2-.4-.4-.7-.3-.6.3.5 2.3-.1 4.6-1 4-.6-.3-.7.1-.4 1 .5 1.3 1.2.9 3.7-2 1.8-2.2 3.5-3.4 4.4-3.1.9.4 1.1.2.7-.6-.5-.7 0-.9 1.4-.6 1.4.4 2 .2 1.5-.5-.4-.7 1.1-.8 4.8-.4 3.3.3 4.6.2 3.4-.3-1.7-.7-1.5-.9 1.3-.9 1.7-.1 3.2-.5 3.2-1 0-.4-3.1-.8-6.9-.7s-6.7.4-6.4.8M64 47.3c0 .2-1 1.2-2.2 2.3l-2.3 1.9 1.9-2.3c1.8-2.1 2.6-2.7 2.6-1.9"/><g fill="gray" stroke-width="0"><path d="m43.8 29.7-.2 26.8L43 30l-.6-26.5-.2 26.7C42 53.5 42.2 57 43.5 57S45 53.3 45 30c0-14.9-.2-27-.5-27s-.6 12-.7 26.7m4.4 0C48 53.4 48.2 57 49.5 57s1.5-3.5 1.3-26.8l-.3-26.7L50 30l-.5 26.5-.5-27-.5-27zM11.2 42c-.1 8.3-.6 13-1.4 13.8-.9.9-.3 1.2 2.8 1.1 2.5-.1 3-.3 1.4-.6-2.5-.4-2.5-.5-2.2-8.6.2-4.5.2-10.5-.1-13.2-.2-2.8-.4.6-.5 7.5m21.1-10.9C31.4 32 31 36 31 43.5c0 7.3-.4 11.5-1.2 12.3-.9.9-.5 1.2 1.8 1.2h2.9l-.3-9.2c-.5-17.1-.6-18-1.9-16.7M33 44c0 6.6-.3 12-.7 12-.5 0-.7-5.4-.5-12s.5-12 .8-12c.2 0 .4 5.4.4 12"/><path d="M13.4 43.5c0 6.6.1 9.2.3 5.7.2-3.4.2-8.8 0-12-.2-3.1-.3-.3-.3 6.3M57 34.2c0 2.3.2 2.3 10.3 2 9.9-.3 10.3-.2 12.6 2.2 1.4 1.4 2.3 2.8 2 3-.2.2-3.9.9-8.2 1.5s-9.1 1.7-10.6 2.6c-2.8 1.4-6.1 6.8-6.1 9.9 0 2.5 2.7 1.9 3.4-.8 1-4.1 6-6.8 14.7-7.9l7.9-1.1v-3.3c0-4-2.3-8.8-4.5-9.7-.9-.3-6.1-.6-11.6-.6-9.6 0-9.9.1-9.9 2.2m22.4.7c1.7 1.9 1.7 1.9-2.1.6-2.3-.8-6.8-1.2-11.5-.9-4.8.2-7.8 0-7.8-.6s4-1 9.8-1c8.5 0 10.1.3 11.6 1.9m2.6 8.9c0 .5-3.4 1.4-7.5 2-8.4 1.1-11.6 2.8-14.6 7.5l-2.1 3.2.7-3c1.3-5.9 4.8-8.3 13.8-9.4 8.8-1.2 9.7-1.2 9.7-.3"/><path d="m61.4 49.2-1.9 2.3 2.3-1.9c2.1-1.8 2.7-2.6 1.9-2.6-.2 0-1.2 1-2.3 2.2m-41.6-6.5c1.8.2 4.5.2 6 0s0-.4-3.3-.4-4.5.2-2.7.4"/></g><path fill="gray" fill-opacity=".2" d="M45.4 29.5c0 14.8.2 21.1.3 13.8.2-7.2.2-19.4 0-27-.1-7.6-.3-1.7-.3 13.2m17.4 7.2c1.2.2 3.2.2 4.5 0 1.2-.2.2-.4-2.3-.4s-3.5.2-2.2.4"/><path fill="gray" fill-opacity=".3" d="M47.2 29.7c-.1 14.9.1 27.4.6 27.6.4.3.6-7.7.4-17.6-.4-33.9-.8-37.3-1-10m-13.3 1.5c.4 2.8.6 2.9.9.9.2-1.3 0-2.7-.5-3.2-.6-.6-.7.3-.4 2.3m.5 13.3c0 5.5.1 7.6.3 4.7s.2-7.4 0-10-.3-.2-.3 5.3"/><path fill="gray" fill-opacity=".8" d="M64.3 31.7c2 .2 5.4.2 7.5 0 2-.2.3-.4-3.8-.4s-5.8.2-3.7.4m-34 6.8c0 2.2.2 3 .4 1.7.2-1.2.2-3 0-4-.3-.9-.5.1-.4 2.3M83.2 44c0 1.4.2 1.9.5 1.2.2-.6.2-1.8 0-2.5-.3-.6-.5-.1-.5 1.3"/><path fill="#004080" fill-opacity=".8" d="M105.4 30.5c0 15.4.2 21.6.3 13.7.2-7.9.2-20.5 0-28-.1-7.5-.3-1.1-.3 14.3M10.3 13c0 4.1.2 5.8.4 3.7.2-2 .2-5.4 0-7.5-.2-2-.4-.3-.4 3.8m20 1.5c0 4.4.2 6.1.4 3.7.2-2.3.2-5.9 0-8-.2-2-.4-.1-.4 4.3m101.5 9.2c1.2.2 3.2.2 4.5 0 1.2-.2.2-.4-2.3-.4s-3.5.2-2.2.4m83 0c1.2.2 3.2.2 4.5 0 1.2-.2.2-.4-2.3-.4s-3.5.2-2.2.4M242.4 35c0 5.8.1 8.1.3 5.2.2-2.8.2-7.6 0-10.5-.2-2.8-.3-.5-.3 5.3m-77.8-1.3c-.6 1.4-.5 1.5.5.6.7-.7 1-1.5.7-1.8s-.9.2-1.2 1.2m-37.3 13c2 .2 5.4.2 7.5 0 2-.2.3-.4-3.8-.4s-5.8.2-3.7.4m39.5 0c.7.3 1.6.2 1.9-.1.4-.3-.2-.6-1.3-.5-1.1 0-1.4.3-.6.6m43.9 0c1.8.2 5 .2 7 0 2.1-.2.7-.4-3.2-.4-3.8 0-5.5.2-3.8.4m28.1 0c.7.3 1.6.2 1.9-.1.4-.3-.2-.6-1.3-.5-1.1 0-1.4.3-.6.6"/><path fill="#004080" fill-opacity=".3" d="M211.2 26c0 1.9.2 2.7.5 1.7.2-.9.2-2.5 0-3.5-.3-.9-.5-.1-.5 1.8m.1 11.5c0 2.2.2 3 .4 1.7.2-1.2.2-3 0-4-.3-.9-.5.1-.4 2.3"/><path fill="#004040" fill-opacity=".1" d="M206.4 32.5c0 6 .1 8.4.3 5.2s.2-8.1 0-11-.3-.3-.3 5.8"/><path fill="gray" fill-opacity=".6" d="M10.1 37.7c.2 9.2.6 8.2 1.1-2.5.2-3.4 0-6.2-.4-6.2-.5 0-.7 3.9-.7 8.7m.1 13.3c0 1.4.2 1.9.5 1.2.2-.6.2-1.8 0-2.5-.3-.6-.5-.1-.5 1.3"/><path fill="gray" fill-opacity=".7" d="M56.3 35.5c0 2.2.2 3 .4 1.7.2-1.2.2-3 0-4-.3-.9-.5.1-.4 2.3m-26 14c0 2.7.2 3.8.4 2.2.2-1.5.2-3.7 0-5-.2-1.2-.4 0-.4 2.8"/><path fill="gray" fill-opacity=".5" d="M14.3 39.5c0 2.2.2 3 .4 1.7.2-1.2.2-3 0-4-.3-.9-.5.1-.4 2.3m5.5 2.2c1.8.2 4.5.2 6 0s0-.4-3.3-.4-4.5.2-2.7.4m0 2c1.8.2 4.5.2 6 0s0-.4-3.3-.4-4.5.2-2.7.4"/><path fill="gray" fill-opacity=".4" d="M14.1 44.6c0 1.1.3 1.4.6.6.3-.7.2-1.6-.1-1.9-.3-.4-.6.2-.5 1.3m.2 5.9c0 2.2.2 3 .4 1.7.2-1.2.2-3 0-4-.3-.9-.5.1-.4 2.3m-5.5 7.2c1.8.2 4.5.2 6 0s0-.4-3.3-.4-4.5.2-2.7.4m21.5 0c1.5.2 3.9.2 5.5 0 1.5-.2.2-.4-2.8-.4s-4.3.2-2.7.4m27.5 0c.7.3 1.6.2 1.9-.1.4-.3-.2-.6-1.3-.5-1.1 0-1.4.3-.6.6"/><path fill-opacity=".2" d="M111.9 64.7c-1.3 1.6-1.2 1.7.4.4s2.1-2.1 1.3-2.1c-.2 0-1 .8-1.7 1.7M71.5 66c-.3.6.1.7.9.4 1.8-.7 2.1-1.4.7-1.4-.6 0-1.3.4-1.6 1m-46.3 2c0 1.4.2 1.9.5 1.2.2-.6.2-1.8 0-2.5-.3-.6-.5-.1-.5 1.3m33.9-2c-.7 1.5-.5 7.8.2 7.1.5-.5.7-2.4.4-4.2-.2-1.9-.5-3.2-.6-2.9m69.1 2.5c0 1.6.2 2.2.5 1.2.2-.9.2-2.3 0-3-.3-.6-.5.1-.5 1.8m37.1 1c0 2.2.2 3 .4 1.7.2-1.2.2-3 0-4-.3-.9-.5.1-.4 2.3m33 0c0 2.2.2 3 .4 1.7.2-1.2.2-3 0-4-.3-.9-.5.1-.4 2.3m33.7 0c0 1.9.5 3.5 1 3.5.6 0 1-1.6 1-3.5s-.4-3.5-1-3.5c-.5 0-1 1.6-1 3.5m16.2 1c0 1.6.2 2.2.5 1.2.2-.9.2-2.3 0-3-.3-.6-.5.1-.5 1.8m-171.9 13c0 2.2.2 3 .4 1.7.2-1.2.2-3 0-4-.3-.9-.5.1-.4 2.3m25.7-1.3c0 1.3.5 3 1 3.8.7 1.1 1 .5 1-2.3 0-2-.4-3.7-1-3.7-.5 0-1 1-1 2.2M54.2 84c0 1.9.2 2.7.5 1.7.2-.9.2-2.5 0-3.5-.3-.9-.5-.1-.5 1.8M86 84c0 1.6.2 3 .4 3s.6-1.4.8-3c.3-1.7.1-3-.4-3-.4 0-.8 1.3-.8 3m-7.7 1.1c-.2 2.3.3 2.5 1 .4.4-.8.3-1.6-.1-1.9s-.9.4-.9 1.5m56.9-.1c0 1.4.2 1.9.5 1.2.2-.6.2-1.8 0-2.5-.3-.6-.5-.1-.5 1.3m26 0c0 1.4.2 1.9.5 1.2.2-.6.2-1.8 0-2.5-.3-.6-.5-.1-.5 1.3m-71.2.4c.7.7 1.3.7 2 0 .6-.6.3-1-1-1s-1.6.4-1 1M29.2 96c0 1.9.2 2.7.5 1.7.2-.9.2-2.5 0-3.5-.3-.9-.5-.1-.5 1.8m25.9-1.4c0 1.1.3 1.4.6.6.3-.7.2-1.6-.1-1.9-.3-.4-.6.2-.5 1.3m40 0c0 1.1.3 1.4.6.6.3-.7.2-1.6-.1-1.9-.3-.4-.6.2-.5 1.3M72.8 97c.2 1.7.6 3 .8 3s.4-1.4.4-3c0-1.7-.4-3-.8-3-.5 0-.7 1.3-.4 3m112.7.9c-.3.5-.1 1.2.5 1.6.5.3 1-.1 1-.9 0-1.8-.6-2.1-1.5-.7"/><path fill-opacity=".6" d="M123.3 69.5c0 2.2.2 3 .4 1.7.2-1.2.2-3 0-4-.3-.9-.5.1-.4 2.3m11 0c0 2.2.2 3 .4 1.7.2-1.2.2-3 0-4-.3-.9-.5.1-.4 2.3m44.9.5c0 1.9.2 2.7.5 1.7.2-.9.2-2.5 0-3.5-.3-.9-.5-.1-.5 1.8m-82 12.5c0 1.6.2 2.2.5 1.2.2-.9.2-2.3 0-3-.3-.6-.5.1-.5 1.8m31 .5c0 1.9.2 2.7.5 1.7.2-.9.2-2.5 0-3.5-.3-.9-.5-.1-.5 1.8m-16 1c0 1.9.2 2.7.5 1.7.2-.9.2-2.5 0-3.5-.3-.9-.5-.1-.5 1.8m85-.5c0 1.6.2 2.2.5 1.2.2-.9.2-2.3 0-3-.3-.6-.5.1-.5 1.8M138 96.9c0 1.7.4 3.2.8 3.5.4.2.6-1.1.4-3-.5-4.2-1.2-4.5-1.2-.5m55.1-1.3c0 1.1.3 1.4.6.6.3-.7.2-1.6-.1-1.9-.3-.4-.6.2-.5 1.3M78.2 97c0 1.4.2 1.9.5 1.2.2-.6.2-1.8 0-2.5-.3-.6-.5-.1-.5 1.3m66 0c0 1.4.2 1.9.5 1.2.2-.6.2-1.8 0-2.5-.3-.6-.5-.1-.5 1.3m78.5-.3c.3.7.6 1.3.8 1.3s.5-.6.8-1.3c.3-.8-.1-1.4-.8-1.4s-1.1.6-.8 1.4m-29 3.4c.7.7 1.5 1 1.8.7s-.2-.9-1.2-1.2c-1.4-.6-1.5-.5-.6.5m-47.9.6c.7.3 1.6.2 1.9-.1.4-.3-.2-.6-1.3-.5-1.1 0-1.4.3-.6.6"/><path fill-opacity=".9" d="M37.2 69c0 1.9.2 2.7.5 1.7.2-.9.2-2.5 0-3.5-.3-.9-.5-.1-.5 1.8m8.3-2c-.3.5-.1 1 .4 1 .6 0 1.1-.5 1.1-1 0-.6-.2-1-.4-1-.3 0-.8.4-1.1 1m7.7 1.5c0 1.6.2 2.2.5 1.2.2-.9.2-2.3 0-3-.3-.6-.5.1-.5 1.8m191.9-1c0 1.2-.5 2.6-1.1 3.3-.5.7-.3.6.6-.2.9-.7 1.4-2.2 1.1-3.2-.4-1.7-.5-1.7-.6.1M71.5 68c-.3.6.1.7.9.4 1.8-.7 2.1-1.4.7-1.4-.6 0-1.3.4-1.6 1m30.6.2c0 .9-.4 2.5-.7 3.5-.5 1.7-.5 1.7.6 0 .6-1 .9-2.5.7-3.5-.4-1.5-.5-1.5-.6 0m18.5.5c-.6 1.4-.5 1.5.5.6.7-.7 1-1.5.7-1.8s-.9.2-1.2 1.2m66.4-.8c0 .5.5 1.3 1 1.6.6.3 1 .2 1-.4 0-.5-.4-1.3-1-1.6-.5-.3-1-.2-1 .4m27.2 1.9c-1.1 2.5-1.1 2.5.4 1 .9-.9 1.5-2.1 1.3-2.7s-1 .2-1.7 1.7m-55.5-.7c.7.7 1.5 1 1.8.7s-.2-.9-1.2-1.2c-1.4-.6-1.5-.5-.6.5m35.1.6c.6.2 1.8.2 2.5 0 .6-.3.1-.5-1.3-.5s-1.9.2-1.2.5M67.1 71.6c0 1.1.3 1.4.6.6.3-.7.2-1.6-.1-1.9-.3-.4-.6.2-.5 1.3m113 0c0 1.1.3 1.4.6.6.3-.7.2-1.6-.1-1.9-.3-.4-.6.2-.5 1.3m8.9.4c-.9.6-1 1-.3 1 .6 0 1.5-.5 1.8-1 .8-1.2.4-1.2-1.5 0m-75.8 11c0 1.4.2 1.9.5 1.2.2-.6.2-1.8 0-2.5-.3-.6-.5-.1-.5 1.3m15.8 0c0 1.1.2 2 .4 2s.6-.9.9-2 .1-2-.4-2-.9.9-.9 2m22.5-1c-.3.5-.1 1.8.4 2.7.9 1.6 1 1.4 1.1-1 0-2.8-.5-3.4-1.5-1.7m16 0c-.3.6.1.7.9.4 1.8-.7 2.1-1.4.7-1.4-.6 0-1.3.4-1.6 1m5.5-.6c0 .2.7.7 1.6 1 .8.3 1.2.2.9-.4-.6-1-2.5-1.4-2.5-.6m-92 3.1c.5.7.7 1.5.3 1.8-.3.4-.1.7.5.7.7 0 1.2-.8 1.2-1.8s-.7-1.9-1.5-1.9c-1 0-1.2.4-.5 1.2m75.4.1c-1.8 1.5-1.8 1.5.2.5 1.2-.6 2.5-.7 2.9-.3.5.4.5.1.1-.6-.9-1.5-.8-1.5-3.2.4m12.8.4c0 1.4.2 1.9.5 1.2.2-.6.2-1.8 0-2.5-.3-.6-.5-.1-.5 1.3M115 86c-.9.6-1 1-.3 1 .6 0 1.5-.5 1.8-1 .8-1.2.4-1.2-1.5 0m-10.2.7c.7.3 1.6.2 1.9-.1.4-.3-.2-.6-1.3-.5-1.1 0-1.4.3-.6.6m16 0c.7.3 1.6.2 1.9-.1.4-.3-.2-.6-1.3-.5-1.1 0-1.4.3-.6.6m-64 7c.6.2 1.8.2 2.5 0 .6-.3.1-.5-1.3-.5s-1.9.2-1.2.5m6 0c.7.3 1.6.2 1.9-.1.4-.3-.2-.6-1.3-.5-1.1 0-1.4.3-.6.6m44.2.3c-.9.6-1 1-.3 1 .6 0 1.5-.5 1.8-1 .8-1.2.4-1.2-1.5 0m38-.6c0 .2.9.6 2 .9s1.8.1 1.4-.4c-.5-.9-3.4-1.3-3.4-.5m8.8.3c.7.3 1.6.2 1.9-.1.4-.3-.2-.6-1.3-.5-1.1 0-1.4.3-.6.6m34 0c.7.3 1.6.2 1.9-.1.4-.3-.2-.6-1.3-.5-1.1 0-1.4.3-.6.6M130.2 96c0 1.4.2 1.9.5 1.2.2-.6.2-1.8 0-2.5-.3-.6-.5-.1-.5 1.3m-87.1.6c0 1.1.3 1.4.6.6.3-.7.2-1.6-.1-1.9-.3-.4-.6.2-.5 1.3m21.5.1c-.6 1.4-.5 1.5.5.6.7-.7 1-1.5.7-1.8s-.9.2-1.2 1.2m14.6.3c0 1.4.2 1.9.5 1.2.2-.6.2-1.8 0-2.5-.3-.6-.5-.1-.5 1.3m66 0c0 1.4.2 1.9.5 1.2.2-.6.2-1.8 0-2.5-.3-.6-.5-.1-.5 1.3m43.8-1c-.9.6-1 1-.3 1 .6 0 1.5-.5 1.8-1 .8-1.2.4-1.2-1.5 0m-105.2.7c.7.3 1.6.2 1.9-.1.4-.3-.2-.6-1.3-.5-1.1 0-1.4.3-.6.6m10 0c.7.3 1.6.2 1.9-.1.4-.3-.2-.6-1.3-.5-1.1 0-1.4.3-.6.6m5.7 1.3c-.4.6.3 1 1.4 1 2.5 0 2.7-.6.6-1.3-.8-.4-1.7-.2-2 .3m68 0c.3.4 1.4 1 2.5 1.3s1.8.2 1.5-.3c-.3-.4-1.4-1-2.5-1.3s-1.8-.2-1.5.3m14.5 0c-1.3.8-1.2 1 .3 1 .9 0 1.7-.5 1.7-1 0-1.2-.1-1.2-2 0m19 0c-1.3.8-1.2 1 .3 1 .9 0 1.7-.5 1.7-1 0-1.2-.1-1.2-2 0m19.5 0c-.4.6.3 1 1.4 1 2.5 0 2.7-.6.6-1.3-.8-.4-1.7-.2-2 .3m-100.7.7c.7.3 1.6.2 1.9-.1.4-.3-.2-.6-1.3-.5-1.1 0-1.4.3-.6.6"/><path fill-opacity=".4" d="M167.2 68.5c0 1.6.2 2.2.5 1.2.2-.9.2-2.3 0-3-.3-.6-.5.1-.5 1.8m33.1 1c0 2.2.2 3 .4 1.7.2-1.2.2-3 0-4-.3-.9-.5.1-.4 2.3m9 0c0 2.2.2 3 .4 1.7.2-1.2.2-3 0-4-.3-.9-.5.1-.4 2.3m-36.1.5c0 1.9.2 2.7.5 1.7.2-.9.2-2.5 0-3.5-.3-.9-.5-.1-.5 1.8m66 0c0 1.9.2 2.7.5 1.7.2-.9.2-2.5 0-3.5-.3-.9-.5-.1-.5 1.8m-216.1-.4c0 1.1.3 1.4.6.6.3-.7.2-1.6-.1-1.9-.3-.4-.6.2-.5 1.3m103 0c0 1.1.3 1.4.6.6.3-.7.2-1.6-.1-1.9-.3-.4-.6.2-.5 1.3m124.1.9c0 1.6.2 2.2.5 1.2.2-.9.2-2.3 0-3-.3-.6-.5.1-.5 1.8M201 79.4c0 .2.7.7 1.6 1 .8.3 1.2.2.9-.4-.6-1-2.5-1.4-2.5-.6M84.2 83c0 1.9.2 2.7.5 1.7.2-.9.2-2.5 0-3.5-.3-.9-.5-.1-.5 1.8m-32 .5c0 1.6.2 2.2.5 1.2.2-.9.2-2.3 0-3-.3-.6-.5.1-.5 1.8M80.5 82c-.3.5-.1 1 .4 1 .6 0 1.1-.5 1.1-1 0-.6-.2-1-.4-1-.3 0-.8.4-1.1 1m-18.4 1.6c0 1.1.3 1.4.6.6.3-.7.2-1.6-.1-1.9-.3-.4-.6.2-.5 1.3m38 0c0 1.1.3 1.4.6.6.3-.7.2-1.6-.1-1.9-.3-.4-.6.2-.5 1.3M31.2 96c0 1.4.2 1.9.5 1.2.2-.6.2-1.8 0-2.5-.3-.6-.5-.1-.5 1.3m6 1c0 1.9.2 2.7.5 1.7.2-.9.2-2.5 0-3.5-.3-.9-.5-.1-.5 1.8m38-.5c0 1.6.2 2.2.5 1.2.2-.9.2-2.3 0-3-.3-.6-.5.1-.5 1.8m48.9-.9c0 1.1.3 1.4.6.6.3-.7.2-1.6-.1-1.9-.3-.4-.6.2-.5 1.3M97 98.9c0 .6.4 1.3 1 1.6s.7-.1.4-.9c-.7-1.8-1.4-2.1-1.4-.7"/><path fill-opacity=".1" d="M94.6 66.2c.3.5 1 .6 1.5.3 1.3-.9 1.1-1.2-.6-1.2-.8 0-1.2.4-.9.9m-54.1.7c-.3.5-.1 1.2.5 1.6.5.3 1-.1 1-.9 0-1.8-.6-2.1-1.5-.7M79 68.4c0 1.4.4 2.7.8 3 .5.3.6-.8.4-2.5-.5-3.5-1.2-3.8-1.2-.5m31.2.6c0 1.9.2 2.7.5 1.7.2-.9.2-2.5 0-3.5-.3-.9-.5-.1-.5 1.8m25.8-.9c0 .5.5.7 1 .4.6-.3 1-.8 1-1.1 0-.2-.4-.4-1-.4-.5 0-1 .5-1 1.1m56.2 1.4c0 1.6.2 2.2.5 1.2.2-.9.2-2.3 0-3-.3-.6-.5.1-.5 1.8m-184.5.2c.5 1.3.3 1.5-1.3.9-1.4-.5-1.6-.4-.7.5.6.6 1.6.8 2.2.5 1.4-.9 1.5-3.6.1-3.6-.5 0-.6.8-.3 1.7m212 1.4c.7.7 1.5 1 1.8.7s-.2-.9-1.2-1.2c-1.4-.6-1.5-.5-.6.5M31 71.4c0 .2.7.7 1.6 1 .8.3 1.2.2.9-.4-.6-1-2.5-1.4-2.5-.6m54 0c0 .2.7.7 1.6 1 .8.3 1.2.2.9-.4-.6-1-2.5-1.4-2.5-.6m74.8.3c.7.3 1.6.2 1.9-.1.4-.3-.2-.6-1.3-.5-1.1 0-1.4.3-.6.6m17.2-.3c0 .2.8 1 1.8 1.7 1.5 1.3 1.6 1.2.3-.4s-2.1-2.1-2.1-1.3M122 73c0 .5.5 1 1.1 1 .5 0 .7-.5.4-1-.3-.6-.8-1-1.1-1-.2 0-.4.4-.4 1m22.7 7.1c.7.7 1.5 1 1.8.7s-.2-.9-1.2-1.2c-1.4-.6-1.5-.5-.6.5m36.8.1c-.8 2.7-1.1 7.7-.4 7.3.4-.3.9-2.3 1.1-4.5.4-4 .1-5.1-.7-2.8M75 83.7c-.3 2.3-.2 3.9.3 3.4s.7-2.4.5-4.2c-.3-3.3-.4-3.3-.8.8m43.9-.5c-.7 3.2 1 5.2 3.8 4.5 1.5-.4 1.4-.5-.4-.6-1.7-.1-2.2-.8-2.5-3.4-.3-3.2-.3-3.2-.9-.5m71.3-.2c0 1.4.2 1.9.5 1.2.2-.6.2-1.8 0-2.5-.3-.6-.5-.1-.5 1.3M146 85.9c0 .6.4 1.3 1 1.6s.7-.1.4-.9c-.7-1.8-1.4-2.1-1.4-.7m-77.3 1.2c.7.7 1.5 1 1.8.7s-.2-.9-1.2-1.2c-1.4-.6-1.5-.5-.6.5M152 87c-.9.6-1 1-.3 1 .6 0 1.5-.5 1.8-1 .8-1.2.4-1.2-1.5 0m33 0c-2.3.7-2.3.8-.3.9 1.2.1 2.5-.4 2.8-.9.3-.6.5-1 .3-.9s-1.4.5-2.8.9m-126.2.7c.6.2 1.8.2 2.5 0 .6-.3.1-.5-1.3-.5s-1.9.2-1.2.5m46 0c.6.2 1.8.2 2.5 0 .6-.3.1-.5-1.3-.5s-1.9.2-1.2.5m85 0c.7.3 1.6.2 1.9-.1.4-.3-.2-.6-1.3-.5-1.1 0-1.4.3-.6.6m-49.5 8.8c0 2.2.2 3 .4 1.7.2-1.2.2-3 0-4-.3-.9-.5.1-.4 2.3m10.4-2.8c-.2.5-.1 1.9.4 3.3.7 2.3.7 2.3.8-.8s-.3-4-1.2-2.5m44.5 2.3c0 1.9.2 2.7.5 1.7.2-.9.2-2.5 0-3.5-.3-.9-.5-.1-.5 1.8m-113 1.5c0 1.6.2 2.2.5 1.2.2-.9.2-2.3 0-3-.3-.6-.5.1-.5 1.8m-35 .5c0 1.4.2 1.9.5 1.2.2-.6.2-1.8 0-2.5-.3-.6-.5-.1-.5 1.3m-8.2.6c0 .8.5 1.2 1 .9.6-.4.8-1.1.5-1.6-.9-1.4-1.5-1.1-1.5.7m87 0c0 .8.5 1.2 1 .9.6-.4.8-1.1.5-1.6-.9-1.4-1.5-1.1-1.5.7"/><g fill-opacity=".3" stroke-opacity=".3" stroke-width="0"><path d="M4.8 65.7c.6.2 1.8.2 2.5 0 .6-.3.1-.5-1.3-.5s-1.9.2-1.2.5m25 0c.6.2 1.8.2 2.5 0 .6-.3.1-.5-1.3-.5s-1.9.2-1.2.5m54 0c.6.2 1.8.2 2.5 0 .6-.3.1-.5-1.3-.5s-1.9.2-1.2.5m12.6.7c-.3.8-.4 2.3-.1 3.3.3 1.2.6.7.7-1.2l.2-3 .8 3 .8 3 .1-2.7c.1-3-1.6-4.7-2.5-2.4m20.1-.6c-.5.4-1 2-1 3.7 0 2.2-.6 3.1-2.5 3.6-1.9.6-1.7.7 1.2.5 2.1-.1 4.1-.6 4.5-1.1.5-.4.2-.5-.4-.1-.9.5-1.3-.3-1.3-2.8 0-2.4.5-3.6 1.8-3.9 1.2-.3 1.3-.5.2-.6-.8 0-1.9.3-2.5.7m26.3-.1c.7.3 1.6.2 1.9-.1.4-.3-.2-.6-1.3-.5-1.1 0-1.4.3-.6.6m6.6.7c-1 2.5 0 7.1 1.6 7.2q1.35 0 .3-.3c-2-.7-1.6-7.1.5-7.6 1.6-.4 1.6-.5-.1-.6-1 0-2 .5-2.3 1.3m9.4-.7c.7.3 1.6.2 1.9-.1.4-.3-.2-.6-1.3-.5-1.1 0-1.4.3-.6.6m14.8.2c-.3.4.6.6 1.9.3 1.4-.2 2.5-.6 2.5-.8 0-.8-3.9-.4-4.4.5m21.2-.2c.7.3 1.6.2 1.9-.1.4-.3-.2-.6-1.3-.5-1.1 0-1.4.3-.6.6m24 0c.6.2 1.8.2 2.5 0 .6-.3.1-.5-1.3-.5s-1.9.2-1.2.5m16 0c.6.2 1.8.2 2.5 0 .6-.3.1-.5-1.3-.5s-1.9.2-1.2.5m11.8.1c-.3.5.8.6 2.5.4 1.6-.2 2.9-.6 2.9-.8 0-.8-4.9-.4-5.4.4M43 69.7c0 2.1.3 2.4.9 1.4.5-.8.7-2 .4-2.8-.8-2.1-1.3-1.5-1.3 1.4"/><path d="M151.2 69c0 1.4.2 1.9.5 1.2.2-.6.2-1.8 0-2.5-.3-.6-.5-.1-.5 1.3m7.8-.6c0 .2.7.7 1.6 1 .8.3 1.2.2.9-.4-.6-1-2.5-1.4-2.5-.6m-98.2 2.9c-.3 1.9-.2 2.5.4 1.9s.8-1.8.6-2.8c-.3-1.4-.5-1.2-1 .9m169.2-.4c0 1.1.4 2.2.9 2.5.4.3.6-.6.3-1.9-.5-3-1.2-3.3-1.2-.6M4.8 73.7c.6.2 1.8.2 2.5 0 .6-.3.1-.5-1.3-.5s-1.9.2-1.2.5m20 0c.7.3 1.6.2 1.9-.1.4-.3-.2-.6-1.3-.5-1.1 0-1.4.3-.6.6m5 0c.6.2 1.8.2 2.5 0 .6-.3.1-.5-1.3-.5s-1.9.2-1.2.5m49 0c.7.3 1.6.2 1.9-.1.4-.3-.2-.6-1.3-.5-1.1 0-1.4.3-.6.6m5 0c.6.2 1.8.2 2.5 0 .6-.3.1-.5-1.3-.5s-1.9.2-1.2.5m59 0c.7.3 1.6.2 1.9-.1.4-.3-.2-.6-1.3-.5-1.1 0-1.4.3-.6.6m16 0c.7.3 1.6.2 1.9-.1.4-.3-.2-.6-1.3-.5-1.1 0-1.4.3-.6.6m8 0c.7.3 1.6.2 1.9-.1.4-.3-.2-.6-1.3-.5-1.1 0-1.4.3-.6.6m8 0c.6.2 1.8.2 2.5 0 .6-.3.1-.5-1.3-.5s-1.9.2-1.2.5m20 0c.7.3 1.6.2 1.9-.1.4-.3-.2-.6-1.3-.5-1.1 0-1.4.3-.6.6m24 0c.6.2 1.8.2 2.5 0 .6-.3.1-.5-1.3-.5s-1.9.2-1.2.5m16 0c.6.2 1.8.2 2.5 0 .6-.3.1-.5-1.3-.5s-1.9.2-1.2.5m-73.7 7.9c0 1.1.3 1.4.6.6.3-.7.2-1.6-.1-1.9-.3-.4-.6.2-.5 1.3m21.2 1.9c0 2.2.2 3 .4 1.7.2-1.2.2-3 0-4-.3-.9-.5.1-.4 2.3m-45.3.6c0 3.5.8 3.5 1.5.1.2-1.2 0-2.4-.6-2.7-.5-.4-.9.8-.9 2.6m-32 .3c0 .3.9 1 2 1.6s2 .8 2 .6c0-.3-.9-1-2-1.6s-2-.8-2-.6m81.1 11.2c0 1.1.3 1.4.6.6.3-.7.2-1.6-.1-1.9-.3-.4-.6.2-.5 1.3m19.1.4c0 1.4.2 1.9.5 1.2.2-.6.2-1.8 0-2.5-.3-.6-.5-.1-.5 1.3m-150 2c0 1.4.2 1.9.5 1.2.2-.6.2-1.8 0-2.5-.3-.6-.5-.1-.5 1.3m2.3 0c-.3.6.1.7.9.4 1.8-.7 2.1-1.4.7-1.4-.6 0-1.3.4-1.6 1m66.6.6c0 1.1.3 1.4.6.6.3-.7.2-1.6-.1-1.9-.3-.4-.6.2-.5 1.3"/></g><path fill-opacity=".8" d="M131.3 68.1c-.1 1 .2 1.9.8 1.9 1.1 0 1.2-2.7.1-3.4-.4-.2-.9.4-.9 1.5m9.7 1.4c0 2 .4 3.4.9 3.1s.9-1.7.9-3.1-.4-2.8-.9-3.1-.9 1.1-.9 3.1m16-2.5c0 .5.5 1 1.1 1 .5 0 .7-.5.4-1-.3-.6-.8-1-1.1-1-.2 0-.4.4-.4 1m27-.3c0 .5.5 1.5 1 2.3.7 1.2.9 1 .7-.8-.1-1.9-1.7-3.3-1.7-1.5M50.5 69c-.3.5-.1 1 .4 1 .6 0 1.1-.5 1.1-1 0-.6-.2-1-.4-1-.3 0-.8.4-1.1 1M67 69c0 .5.5 1 1.1 1 .5 0 .7-.5.4-1-.3-.6-.8-1-1.1-1-.2 0-.4.4-.4 1m157.1.6c0 1.1.3 1.4.6.6.3-.7.2-1.6-.1-1.9-.3-.4-.6.2-.5 1.3m-67.1 2c0 .8.5 1.2 1 .9.6-.3 1-1 1-1.6 0-.5-.4-.9-1-.9-.5 0-1 .7-1 1.6m88.1 0c0 1.1.3 1.4.6.6.3-.7.2-1.6-.1-1.9-.3-.4-.6.2-.5 1.3M58.3 80.7c-.7.2-1.3 1.6-1.3 2.9 0 1.5.4 2.3 1 1.9s.8-1.1.4-1.6c-.3-.5 0-1.6.6-2.4 1.3-1.6 1.2-1.6-.7-.8M69 82.9c0 1.6.5 3.3 1 3.6.6.3 1 0 1-.9 0-.8.3-1.6.8-1.9.4-.2.1-.2-.7 0s-1.1-.2-.8-1.2c.4-.8.2-1.7-.3-2-.6-.4-1 .7-1 2.4m103 .7c0 1.9.4 3.3.8 3 .8-.5.4-6.6-.4-6.6-.2 0-.4 1.6-.4 3.6m-23.3-.5c.7.7 1.5 1 1.8.7s-.2-.9-1.2-1.2c-1.4-.6-1.5-.5-.6.5m27.8.8c-.3.5-.2 1.2.3 1.5s.9-.1.9-.9c0-1.7-.3-1.9-1.2-.6M78 94.1c0 .5.5.7 1 .4.6-.3 1-.8 1-1.1 0-.2-.4-.4-1-.4-.5 0-1 .5-1 1.1m57 2.9c0 1.8.4 2.9 1 2.5.6-.3 1-1.5 1-2.5s-.4-2.2-1-2.5c-.6-.4-1 .7-1 2.5m-72-.6c0 .2.7.7 1.6 1 .8.3 1.2.2.9-.4-.6-1-2.5-1.4-2.5-.6m107 .7c0 .5.5.7 1 .4.6-.3 1-.8 1-1.1 0-.2-.4-.4-1-.4-.5 0-1 .5-1 1.1M32.5 100c-.3.5-.1 1 .4 1 .6 0 1.1-.5 1.1-1 0-.6-.2-1-.4-1-.3 0-.8.4-1.1 1m184 0c-.3.6.1.7.9.4 1.8-.7 2.1-1.4.7-1.4-.6 0-1.3.4-1.6 1"/><path fill-opacity=".5" d="M3.3 69.5c0 2.2.2 3 .4 1.7.2-1.2.2-3 0-4-.3-.9-.5.1-.4 2.3m24.9-.5c0 1.9.2 2.7.5 1.7.2-.9.2-2.5 0-3.5-.3-.9-.5-.1-.5 1.8m54 0c0 1.9.2 2.7.5 1.7.2-.9.2-2.5 0-3.5-.3-.9-.5-.1-.5 1.8m22.1.5c0 2.2.2 3 .4 1.7.2-1.2.2-3 0-4-.3-.9-.5.1-.4 2.3m113 0c0 2.2.2 3 .4 1.7.2-1.2.2-3 0-4-.3-.9-.5.1-.4 2.3M56 67.5c0 .5.5 1.7 1 2.5s1 1 1 .5c0-.6-.5-1.7-1-2.5s-1-1.1-1-.5M77.2 70c0 1.9.2 2.7.5 1.7.2-.9.2-2.5 0-3.5-.3-.9-.5-.1-.5 1.8M38 71c0 1.1.2 2 .4 2s.6-.9.9-2 .1-2-.4-2-.9.9-.9 2m14.3 8.7c.9.2 2.3.2 3 0 .6-.3-.1-.5-1.8-.5-1.6 0-2.2.2-1.2.5m52.5 0c.6.2 1.8.2 2.5 0 .6-.3.1-.5-1.3-.5s-1.9.2-1.2.5m9 0c.7.3 1.6.2 1.9-.1.4-.3-.2-.6-1.3-.5-1.1 0-1.4.3-.6.6m7 0c.7.3 1.6.2 1.9-.1.4-.3-.2-.6-1.3-.5-1.1 0-1.4.3-.6.6m63 0c.6.2 1.8.2 2.5 0 .6-.3.1-.5-1.3-.5s-1.9.2-1.2.5m4.6.7c-.3.8-.4 2.5-.1 3.8.3 1.8.5 1.6.6-.9.1-2.1.7-3.3 1.9-3.6 1.6-.4 1.6-.5-.1-.6-1 0-2 .5-2.3 1.3m-39.7 1.7c.7.7 1.5 1 1.8.7s-.2-.9-1.2-1.2c-1.4-.6-1.5-.5-.6.5m-.6 3.5c0 1.1.3 1.4.6.6.3-.7.2-1.6-.1-1.9-.3-.4-.6.2-.5 1.3M41.5 96c-.3.5-.1 1 .4 1 .6 0 1.1-.5 1.1-1 0-.6-.2-1-.4-1-.3 0-.8.4-1.1 1m3.7 1c0 1.4.2 1.9.5 1.2.2-.6.2-1.8 0-2.5-.3-.6-.5-.1-.5 1.3m46 0c0 1.4.2 1.9.5 1.2.2-.6.2-1.8 0-2.5-.3-.6-.5-.1-.5 1.3m37.3-1c-.3.5-.1 1 .4 1 .6 0 1.1-.5 1.1-1 0-.6-.2-1-.4-1-.3 0-.8.4-1.1 1m81.2 4.1c.7.7 1.5 1 1.8.7s-.2-.9-1.2-1.2c-1.4-.6-1.5-.5-.6.5"/><g stroke-width="0"><path d="M4.1 69.7c.2 3.5.2 3.5.6.8.3-1.6 1-3.3 1.6-3.7.8-.5.6-.8-.5-.8-1.4 0-1.8.8-1.7 3.7m6.1-2.5c-1.7 1.7-1.5 3.3.6 4.9 1.4 1.1 1.5 1.1.5-.1-1.9-2.1-1.6-4 1-5 1.3-.5 1.6-.9.7-.9-.9-.1-2.1.4-2.8 1.1m6.4-.3c-.3.4.6.6 1.9.3 1.4-.2 2.5-.6 2.5-.8 0-.8-3.9-.4-4.4.5m7.7 2.6c0 2.2.2 3 .4 1.7.2-1.2.2-3 0-4-.3-.9-.5.1-.4 2.3m4.8.2c.2 3.5.2 3.5.6.8.3-1.6 1-3.3 1.6-3.7.8-.5.6-.8-.5-.8-1.4 0-1.8.8-1.7 3.7M38 67c0 .5.5 1 1.1 1 .5 0 .7-.5.4-1-.3-.6-.8-1-1.1-1-.2 0-.4.4-.4 1m3.8 2c-.3 1.7-.1 3.3.4 3.6.4.3.8-1.1.8-3 0-4.4-.6-4.7-1.2-.6m5.2-2.6c0 .2.9.6 2 .9s1.8.1 1.4-.4c-.5-.9-3.4-1.3-3.4-.5m8.3.2c2 .6 2.3 2.1.4 2.6-.9.2-.8.7.4 1.9 1.5 1.5 1.6 1.4 1.5-1.5-.1-2.3-.7-3.1-2.1-3.3-1.6-.1-1.6-.1-.2.3m4.7 2.9c0 1.9.2 3.5.4 3.5s.6-1.6.8-3.5 0-3.5-.4-3.5-.8 1.6-.8 3.5m18.3 0c0 2.2.2 3 .4 1.7.2-1.2.2-3 0-4-.3-.9-.5.1-.4 2.3m4.8.2c.2 3.5.2 3.5.6.8.3-1.6 1-3.3 1.6-3.7.8-.5.6-.8-.5-.8-1.4 0-1.8.8-1.7 3.7m8.3-2.5c-.4.6.1 1.7 1 2.4 1.1.8 1.5 1.8 1.1 2.6-.7 1.1-.6 1.1.6 0s1.1-1.5-.3-2.6c-1-.7-1.8-1.6-1.8-1.9s.8-.8 1.8-1c1.5-.4 1.5-.5 0-.6-.9 0-2 .4-2.4 1.1m5.6 1.7c0 1.7.4 3.2.8 3.5.4.2.6-1.1.4-3-.5-4.2-1.2-4.5-1.2-.5m8.2.8.1 3.8.4-3.3c.3-2.5.8-3.2 1.9-2.8.9.3 1.2.1.9-.4-.3-.6-1.3-1-2.1-1-1 0-1.4 1.1-1.2 3.7m5.8-.2c0 1.9.4 3.5.8 3.5s.6-1.6.4-3.5-.6-3.5-.8-3.5-.4 1.6-.4 3.5m6.2.2c.1 3.7.1 3.7.5.6.3-1.9 1.1-3.4 2.1-3.6 1.2-.3 1-.5-.5-.6-2-.1-2.3.3-2.1 3.6m7.1-.2c0 2.2.2 3 .4 1.7.2-1.2.2-3 0-4-.3-.9-.5.1-.4 2.3m2.7-.6c0 1.7.4 3.2.8 3.5.4.2.6-1.1.4-3-.5-4.2-1.2-4.5-1.2-.5m8.3.6c0 2.2.2 3 .4 1.7.2-1.2.2-3 0-4-.3-.9-.5.1-.4 2.3m2.1-1.5c0 1.3.4 1.6 1 1 .7-.7.7-1.3 0-2-.6-.6-1-.3-1 1m5.4-1.3c.7.3 1.6.2 1.9-.1.4-.3-.2-.6-1.3-.5-1.1 0-1.4.3-.6.6m7.4 3 .1 3.8.4-3.3c.4-2.8.8-3.3 2.4-2.9 1 .3 1.7.1 1.3-.4-.3-.5-1.4-.9-2.5-.9-1.6 0-1.9.6-1.7 3.7m8.6-3c.7.3 1.6.2 1.9-.1.4-.3-.2-.6-1.3-.5-1.1 0-1.4.3-.6.6m7.3 2.5c-.1 3 .3 3.8 1.7 3.8 1.1 0 1.3-.3.5-.8-.6-.4-1.3-2.1-1.6-3.7-.4-2.7-.4-2.7-.6.7m7.9.3c0 3 .3 3.5 2.3 3.4 1.6-.1 1.8-.2.5-.6-1.1-.3-1.8-1.4-1.8-2.8s.7-2.5 1.8-2.8c1.3-.4 1.1-.5-.5-.6-2-.1-2.3.4-2.3 3.4m6-3.2c0 .4.5 1.3 1 2 .6.7 1.7 2.1 2.5 3.2s1.4 1.5 1.5 1c0-1.2-4.9-7.4-5-6.2m8.8.4c.7.3 1.6.2 1.9-.1.4-.3-.2-.6-1.3-.5-1.1 0-1.4.3-.6.6m4.2 1c0 1.1.3 1.4.8.7.4-.6 1.4-1.4 2.2-1.7 1-.4.8-.6-.7-.6-1.6-.1-2.3.5-2.3 1.6m6.3 1.8c0 2.2.2 3 .4 1.7.2-1.2.2-3 0-4-.3-.9-.5.1-.4 2.3m5.5-2.8c.7.3 1.6.2 1.9-.1.4-.3-.2-.6-1.3-.5-1.1 0-1.4.3-.6.6m5.2.2c0 .5.7 1.1 1.4 1.4q1.5.6.9-.9c-.6-1.5-2.3-1.9-2.3-.5m8.1 2.8c.2 3.5.2 3.5.6.8.3-1.6 1-3.3 1.6-3.7.8-.5.6-.8-.5-.8-1.4 0-1.8.8-1.7 3.7m6.4-2.7c.3.5.8 1 1.1 1 .2 0 .4-.5.4-1 0-.6-.5-1-1.1-1-.5 0-.7.4-.4 1m6.3 2.5c.2 1.9.6 3.5.8 3.5s.4-1.6.4-3.5-.4-3.5-.8-3.5-.6 1.6-.4 3.5m3.2 0c0 1.9.4 3.5.8 3.5.5 0 .7-1.3.4-2.9-.3-2.2 0-3 1.5-3.4s1.4-.5-.4-.6c-2-.1-2.3.4-2.3 3.4m6-2.6c0 .5.7 1.1 1.4 1.4q1.5.6.9-.9c-.6-1.5-2.3-1.9-2.3-.5m7.7-.1c.6.4 1.3 2.1 1.6 3.7l.4 3 .2-3.2c0-1.7.7-3.4 1.4-3.6.6-.3-.1-.6-1.8-.6-1.6 0-2.5.3-1.8.7M21.1 69.6c0 1.1.3 1.4.6.6.3-.7.2-1.6-.1-1.9-.3-.4-.6.2-.5 1.3m24.2.3c.1 1.4.9 2.6 1.7 2.8 1 .3 1.1.2.4-.4-.7-.4-1.4-1.7-1.7-2.8-.5-1.6-.5-1.5-.4.4m28.8-.9c0 .8.4 2.2.9 3 1.2 1.8 1.2.2 0-2.5-.6-1.3-.9-1.5-.9-.5m128.2.9c.1 1.4.9 2.6 1.7 2.8 1 .3 1.1.2.4-.4-.7-.4-1.4-1.7-1.7-2.8-.5-1.6-.5-1.5-.4.4"/><path d="M120 71c.6 1.1 1.3 2 1.6 2 .2 0 0-.9-.6-2s-1.3-2-1.6-2c-.2 0 0 .9.6 2m90.2 0c0 1.4.2 1.9.5 1.2.2-.6.2-1.8 0-2.5-.3-.6-.5-.1-.5 1.3M63 70.9c0 .5.5 1.3 1 1.6.6.3 1 .2 1-.4 0-.5-.4-1.3-1-1.6-.5-.3-1-.2-1 .4m130 0c0 .6.4 1.3 1 1.6s.7-.1.4-.9c-.7-1.8-1.4-2.1-1.4-.7m13.6.8c-.6 1.4-.5 1.5.5.6.7-.7 1-1.5.7-1.8s-.9.2-1.2 1.2m7-.4c.3 1 .9 1.5 1.2 1.2s0-1.1-.7-1.8c-1-.9-1.1-.8-.5.6m26.5.3c0 1.1.3 1.4.6.6.3-.7.2-1.6-.1-1.9-.3-.4-.6.2-.5 1.3m3.5-.3c.3 1 .9 1.5 1.2 1.2s0-1.1-.7-1.8c-1-.9-1.1-.8-.5.6m-16.6.8c0 .5.5.7 1 .4.6-.3 1-.8 1-1.1 0-.2-.4-.4-1-.4-.5 0-1 .5-1 1.1M53.3 83.5c0 2.2.2 3 .4 1.7.2-1.2.2-3 0-4-.3-.9-.5.1-.4 2.3m10.1-2.1c-.3.8-.4 2.3-.2 3.3q.45 1.65.9-1.5c.6-3.4.2-4.2-.7-1.8m10.9 2.1c0 2.2.2 3 .4 1.7.2-1.2.2-3 0-4-.3-.9-.5.1-.4 2.3m2.7 0c0 1.9.2 3.5.4 3.5s.6-1.6.8-3.5 0-3.5-.4-3.5-.8 1.6-.8 3.5m5.1-1.9c0 1.1.3 1.4.6.6.3-.7.2-1.6-.1-1.9-.3-.4-.6.2-.5 1.3m3.2 1.9c0 2.2.2 3 .4 1.7.2-1.2.2-3 0-4-.3-.9-.5.1-.4 2.3m3.1-2.1c-.3.8-.4 2.3-.2 3.3q.45 1.65.9-1.5c.6-3.4.2-4.2-.7-1.8m4.4 1.5c.3 2.2 0 3-1.5 3.5-1.6.4-1.5.5.2.3 2.2-.2 3.4-4.2 1.8-5.8-.6-.6-.8.2-.5 2m3.3-.9c-.1 2.6 1.5 5 3.3 5 .5 0 .3-.6-.6-1.3-.9-.6-1.9-2.3-2.1-3.7l-.4-2.5zm5.1 1c0 1.9.2 2.7.5 1.7.2-.9.2-2.5 0-3.5-.3-.9-.5-.1-.5 1.8m3 0c0 1.9.2 2.7.5 1.7.2-.9.2-2.5 0-3.5-.3-.9-.5-.1-.5 1.8m12.7.2c.4 2.8.6 2.9.9.9.2-1.3 0-2.7-.5-3.2-.6-.6-.7.3-.4 2.3m3.3-.2c0 1.9.2 2.7.5 1.7.2-.9.2-2.5 0-3.5-.3-.9-.5-.1-.5 1.8m15.6.5c.2 1.9.6 3.5.8 3.5s.4-1.6.4-3.5-.4-3.5-.8-3.5-.6 1.6-.4 3.5m3.6-2.1c-.3.8-.4 2.3-.2 3.3q.45 1.65.9-1.5c.6-3.4.2-4.2-.7-1.8m7.9 2.1c0 2.2.2 3 .4 1.7.2-1.2.2-3 0-4-.3-.9-.5.1-.4 2.3m14.7 0c0 1.9.2 3.5.4 3.5s.6-1.6.8-3.5 0-3.5-.4-3.5-.8 1.6-.8 3.5m17.8 0c.2 1.9.6 3.5.8 3.5s.4-1.6.4-3.5-.4-3.5-.8-3.5-.6 1.6-.4 3.5m3.5 0c0 2.2.2 3 .4 1.7.2-1.2.2-3 0-4-.3-.9-.5.1-.4 2.3m6 0c0 2.2.2 3 .4 1.7.2-1.2.2-3 0-4-.3-.9-.5.1-.4 2.3m7 0c0 2.2.2 3 .4 1.7.2-1.2.2-3 0-4-.3-.9-.5.1-.4 2.3m3.8-.8c-.1.6-.4 2-.7 3-.5 1.7-.5 1.7.6 0 .6-1 .9-2.3.6-3-.3-.9-.5-.9-.5 0m3 .3c0 .8.4 2.2.9 3 1.2 1.8 1.2.2 0-2.5-.6-1.3-.9-1.5-.9-.5m-70.6 2c-.3.5-.1 1 .4 1 .6 0 1.1-.5 1.1-1 0-.6-.2-1-.4-1-.3 0-.8.4-1.1 1m32.5 0c0 .5.5 1 1.1 1 .5 0 .7-.5.4-1-.3-.6-.8-1-1.1-1-.2 0-.4.4-.4 1m11.5.1c-.4.6-.5 1.2-.2 1.5.2.3.7-.2 1-1.1.7-1.7.1-2-.8-.4M30 96.4c0 1.4.4 2.7.8 3 .5.3.6-.8.4-2.5-.5-3.5-1.2-3.8-1.2-.5m4.9.4c-.3 2-.2 2.9.4 2.3.5-.5.7-1.9.5-3.2-.3-2-.5-1.9-.9.9m11.3.2c0 1.9.2 2.7.5 1.7.2-.9.2-2.5 0-3.5-.3-.9-.5-.1-.5 1.8m2.9-1.4c0 1.1.3 1.4.6.6.3-.7.2-1.6-.1-1.9-.3-.4-.6.2-.5 1.3m7.1 1.4c0 1.9.2 2.7.5 1.7.2-.9.2-2.5 0-3.5-.3-.9-.5-.1-.5 1.8m6 0c0 1.9.2 2.7.5 1.7.2-.9.2-2.5 0-3.5-.3-.9-.5-.1-.5 1.8m5.8-2.1c0 .6.4 1.3 1 1.6s.7-.1.4-.9c-.7-1.8-1.4-2.1-1.4-.7m6.2 2.1c0 1.9.2 2.7.5 1.7.2-.9.2-2.5 0-3.5-.3-.9-.5-.1-.5 1.8m18 0c0 1.9.2 2.7.5 1.7.2-.9.2-2.5 0-3.5-.3-.9-.5-.1-.5 1.8m4 0c0 1.9.2 2.7.5 1.7.2-.9.2-2.5 0-3.5-.3-.9-.5-.1-.5 1.8m15.8-2.1c0 .6.4 1.3 1 1.6s.7-.1.4-.9c-.7-1.8-1.4-2.1-1.4-.7m7.6-.1c.6.4 1.5 1.7 1.9 3s.9 2.2 1.1 1.9c.9-.8-1.6-5.7-2.8-5.7-.9 0-1 .3-.2.8m5.5 2.4c.2 3.2.2 3.2.6.4.4-2.3.7-2.6 1.5-1.5.8 1.2.9 1.2.6 0-.9-3.1-2.8-2.3-2.7 1.1m14.1-.2c0 1.9.2 2.7.5 1.7.2-.9.2-2.5 0-3.5-.3-.9-.5-.1-.5 1.8m9.7-.2c-.3 2-.2 2.9.4 2.3.5-.5.7-1.9.5-3.2-.3-2-.5-1.9-.9.9m3.3.2c0 1.9.2 2.7.5 1.7.2-.9.2-2.5 0-3.5-.3-.9-.5-.1-.5 1.8m16.4-2.2c-.3.5.1.9.9.9s1.2-.4.9-.9c-.3-.4-.7-.8-.9-.8s-.6.4-.9.8m5.4.1c0 .6.4 1.3 1 1.6s.7-.1.4-.9c-.7-1.8-1.4-2.1-1.4-.7m8.2.5c.7.8 1.5 1.2 1.7 1.1.5-.6-1-2.5-2-2.5-.5 0-.4.6.3 1.4m5 1.6c0 1.9.2 2.7.5 1.7.2-.9.2-2.5 0-3.5-.3-.9-.5-.1-.5 1.8m7 0c0 1.9.2 2.7.5 1.7.2-.9.2-2.5 0-3.5-.3-.9-.5-.1-.5 1.8m7-1.6c.7.8 1.5 1.2 1.7 1.1.5-.6-1-2.5-2-2.5-.5 0-.4.6.3 1.4m4.9 1.8.1 3.3.7-2.9.6-2.9 1.4 2.6c.8 1.5 1.8 2.7 2.3 2.7s-.1-1.4-1.4-3c-2.8-3.9-3.8-3.8-3.7.2m5-1.6c0 1.1.3 1.4.6.6.3-.7.2-1.6-.1-1.9-.3-.4-.6.2-.5 1.3m10.4-.5c-1.1 1.6-.1 1.9 1.3.3.7-.8.8-1.4.3-1.4s-1.3.5-1.6 1.1M103 97.4c0 .8.4 1.7.9 2 .5.4.7-.3.4-1.4-.6-2.3-1.3-2.6-1.3-.6m87.4.6c0 1.3.4 1.6 1 1 .7-.7.7-1.3 0-2-.6-.6-1-.3-1 1m-152.3.6c0 1.1.3 1.4.6.6.3-.7.2-1.6-.1-1.9-.3-.4-.6.2-.5 1.3m45 0c0 1.1.3 1.4.6.6.3-.7.2-1.6-.1-1.9-.3-.4-.6.2-.5 1.3m32 0c0 1.1.3 1.4.6.6.3-.7.2-1.6-.1-1.9-.3-.4-.6.2-.5 1.3m62 0c0 1.1.3 1.4.6.6.3-.7.2-1.6-.1-1.9-.3-.4-.6.2-.5 1.3m36.9-.7c0 .6.4 1.3 1 1.6s.7-.1.4-.9c-.7-1.8-1.4-2.1-1.4-.7m10 0c0 .6.4 1.3 1 1.6s.7-.1.4-.9c-.7-1.8-1.4-2.1-1.4-.7M41.5 99c.3.5.8 1 1.1 1 .2 0 .4-.5.4-1 0-.6-.5-1-1.1-1-.5 0-.7.4-.4 1"/></g><path fill-opacity=".7" d="M68.1 67.6c0 1.1.3 1.4.6.6.3-.7.2-1.6-.1-1.9-.3-.4-.6.2-.5 1.3m33.1.9c0 1.6.2 2.2.5 1.2.2-.9.2-2.3 0-3-.3-.6-.5.1-.5 1.8m83.4-.6c-.4.5-.2 2 .3 3.3.9 2.1.9 2 .8-.9-.2-3.6-.3-3.8-1.1-2.4m38.6 2.1c0 1.9.2 2.7.5 1.7.2-.9.2-2.5 0-3.5-.3-.9-.5-.1-.5 1.8M68.1 71.6c0 1.1.3 1.4.6.6.3-.7.2-1.6-.1-1.9-.3-.4-.6.2-.5 1.3M170.2 83c0 1.9.2 2.7.5 1.7.2-.9.2-2.5 0-3.5-.3-.9-.5-.1-.5 1.8m2.8.5c0 .8.2 1.5.4 1.5s.6-.7 1-1.5c.3-.8.1-1.5-.4-1.5-.6 0-1 .7-1 1.5m-69.5 15.4c-.3.5-.2 1.2.3 1.5s.9-.1.9-.9c0-1.7-.3-1.9-1.2-.6m-46 1.1c-.3.5.1 1 1 1s1.3-.5 1-1c-.3-.6-.8-1-1-1s-.7.4-1 1m27 0c-.3.5.1 1 1 1s1.3-.5 1-1c-.3-.6-.8-1-1-1s-.7.4-1 1m69 0c-.3.5.1 1 1 1s1.3-.5 1-1c-.3-.6-.8-1-1-1s-.7.4-1 1m35 0c-.3.5-.1 1 .4 1 .6 0 1.1-.5 1.1-1 0-.6-.2-1-.4-1-.3 0-.8.4-1.1 1"/></svg>