<?xml version="1.0" encoding="UTF-8"?>
<svg id="Character" xmlns="http://www.w3.org/2000/svg" width="800.000000000002728" height="800.000000000001819" viewBox="0 0 800.000000000002728 800.000000000001819">
  <defs>
    <style>
      .cls-1, .cls-2, .cls-3, .cls-4, .cls-5 {
        fill: #101050;
      }

      .cls-1, .cls-6, .cls-3, .cls-7, .cls-8, .cls-4, .cls-5 {
        stroke: #101050;
      }

      .cls-1, .cls-7, .cls-9, .cls-8 {
        stroke-linecap: round;
      }

      .cls-1, .cls-7, .cls-9, .cls-8, .cls-5 {
        stroke-linejoin: round;
      }

      .cls-10 {
        fill: #00c6ba;
      }

      .cls-11, .cls-6, .cls-7 {
        fill: #fff;
      }

      .cls-6, .cls-3, .cls-4, .cls-12 {
        stroke-miterlimit: 10;
      }

      .cls-6, .cls-7, .cls-9, .cls-8, .cls-12, .cls-5 {
        stroke-width: 2px;
      }

      .cls-3 {
        stroke-width: 4px;
      }

      .cls-9, .cls-8, .cls-12 {
        fill: none;
      }

      .cls-9, .cls-12 {
        stroke: #fff;
      }
    </style>
  </defs>
  <g>
    <path class="cls-10" d="m17.471266070251659,226.44502983487746l.000036698658732,56.153240346185157c.000004685196473,7.168897071321226,5.811524228535745,12.98040901848799,12.980421299856062,12.980404333285151l75.639668731720121-.000049433911045c3.653519895497084-.000002387742825,7.137910782115796-1.539747291521053,9.597688611414924-4.241197562498201l22.698155879470505-24.928118739809179c6.135081613901093-6.737810263229221,6.135074882517983-17.037632998780282-.000015538341358-23.775475588316112l-22.698188462709368-24.928048725847475c-2.459781360357738-2.701487401232043-5.944174259539068-4.241187405177698-9.597694155035242-4.241185017443058l-75.639668731720121.000049433925597c-7.168897071321226.000004685196473-12.980409018482533,5.811524228534836-12.980404333314254,12.980380954429165Zm99.295659533951948,28.076555278931664c-.000002836802196-4.340642751409177,3.51884174548195-7.859451587703916,7.859444151470598-7.859454424476098,4.340683096845169-.000002836825843,7.859451587683907,3.518801400059601,7.859454424484284,7.859444151476964.000002836810381,4.340642751400992-3.518761054648166,7.859451587645708-7.859444151476964,7.859454424477917-4.340602405987738.000002836772182-7.859451587674812-3.51880140006233-7.859454424477917-7.859444151478783Z"/>
    <path class="cls-11" d="m55.796276384102384,270.112249926287404l2.5478515625-3.73486328125c2.81298828125,2.3896484375,6.16845703125,4.36279296875,10.19189453125,4.36279296875,4.88427734375,0,7.3720703125-2.6650390625,7.3720703125-6.78173828125,0-10.70166015625-18.4443359375-8.3828125-18.4443359375-21.22509765625,0-6.63330078125,4.8515625-11.14794921875,11.80078125-11.14794921875,5.2236328125,0,8.3974609375,2.20849609375,11.0888671875,5.056640625l-2.8984375,3.2138671875c-2.458984375-2.36181640625-4.46337890625-3.75146484375-8.03125-3.75146484375-4.04736328125,0-6.642578125,2.54345703125-6.642578125,6.35107421875,0,9.603515625,18.4443359375,6.9482421875,18.4443359375,21.1279296875,0,7.03662109375-5.01513671875,11.67626953125-12.689453125,11.67626953125-4.71044921875,0-9.6142578125-2.25146484375-12.73974609375-5.1474609375Zm11.24658203125-44.99462890625h3.97119140625v8.48095703125h-3.97119140625v-8.48095703125Zm0,48.2265625h3.97119140625v8.3828125h-3.97119140625v-8.3828125Z"/>
  </g>
  <g>
    <path class="cls-10" d="m351.424402864101467,503.0829874442461l-.000036698656913-56.153240346184248c-.000004685197382-7.168897071322135-5.811524228537564-12.98040901848799-12.980421299856062-12.980404333285151l-75.639668731721031.000049433911045c-3.653519895496174.000002387741915-7.137910782115796,1.539747291521053-9.597688611415833,4.24119756249911l-22.698155879468686,24.928118739808269c-6.135081613902912,6.737810263230131-6.135074882517983,17.037632998780282.000015538340449,23.775475588316112l22.698188462710277,24.928048725848384c2.459781360357738,2.701487401231134,5.944174259538158,4.241187405176788,9.597694155035242,4.241185017442149l75.639668731719212-.000049433925597c7.168897071321226-.000004685197382,12.980409018482533-5.811524228534836,12.980404333313345-12.980380954430075Zm-99.295659533950129-28.076555278931664c.000002836801286,4.340642751409177-3.51884174548286,7.859451587704825-7.859444151471507,7.859454424477008-4.340683096844259.000002836825843-7.859451587682997-3.51880140006142-7.859454424484284-7.859444151476964-.000002836810381-4.340642751400992,3.518761054649076-7.859451587645708,7.859444151476055-7.859454424477917,4.340602405989557-.000002836771273,7.859451587674812,3.51880140006233,7.859454424479736,7.859444151477874Z"/>
    <path class="cls-11" d="m285.687389665352384,490.597113207537404l2.5478515625-3.73486328125c2.81298828125,2.3896484375,6.16845703125,4.36279296875,10.19189453125,4.36279296875,4.88427734375,0,7.3720703125-2.6650390625,7.3720703125-6.78173828125,0-10.70166015625-18.4443359375-8.3828125-18.4443359375-21.22509765625,0-6.63330078125,4.8515625-11.14794921875,11.80078125-11.14794921875,5.2236328125,0,8.3974609375,2.208984375,11.0888671875,5.056640625l-2.8984375,3.2138671875c-2.458984375-2.36181640625-4.46337890625-3.75146484375-8.03125-3.75146484375-4.04736328125,0-6.642578125,2.54345703125-6.642578125,6.35107421875,0,9.603515625,18.44482421875,6.9482421875,18.44482421875,21.1279296875,0,7.03662109375-5.015625,11.67626953125-12.68994140625,11.67626953125-4.71044921875,0-9.6142578125-2.25146484375-12.73974609375-5.1474609375Zm11.24658203125-44.99462890625h3.97119140625v8.48095703125h-3.97119140625v-8.48095703125Zm0,48.2265625h3.97119140625v8.3828125h-3.97119140625v-8.3828125Z"/>
  </g>
  <g>
    <rect class="cls-8" x="167.478377721708057" y="281.14532711212405" width="193.853949219936567" height="27.939038376198312"/>
    <rect class="cls-4" x="176.316738353881703" y="290.25463303263183" width="38.880327219105112" height="9.720289498314401" rx="4.859997444040204" ry="4.859997444040204"/>
    <rect class="cls-4" x="222.411993266183543" y="290.254844045629852" width="19.440376941293863" height="9.720023017340395" rx="4.859997159621241" ry="4.859997159621241"/>
    <path class="cls-4" d="m346.360468127981221,299.971409955639501l-16.606482603076984.006911755824149c-2.684128637178219.001908571730382-4.861581394631685-2.172480547364103-4.863452004075953-4.856609211254181l-.000000006783011-.000009719984519c-.001870567026344-2.684067789592518,2.172454361661039-4.861464512637212,4.856522117264831-4.863383206472463l16.606482577659335-.006948569847737c2.684144959403966-.001918749017022,4.861612733772745,2.172487603606896,4.863470426615095,4.856632605953564l.000000032210664.000046534028115c.001857638054389,2.684065845343866-2.172474730167778,4.86145128469434-4.856540539813977,4.863359811753071Z"/>
    <polygon class="cls-2" points="411.42873637502089 226.887417645258211 411.402754193160945 264.543608225610114 168.889156153648401 264.373028531596901 153.879728089285891 264.362773501167794 153.905584144045861 226.706582920806795 411.42873637502089 226.887417645258211"/>
    <path class="cls-12" d="m153.880426865795016,366.277155492266502c-.003916944501725,4.994351908916542,4.079788816317887,9.083474293812287,9.075380980416412,9.087005641948963l239.141660043128468.167469784016248c4.996500876870414.003423437930905,9.085267459759962-4.079950108538469,9.088251985794159-9.074218141013262l.101723441431204-145.304985388185742c.003832351213532-4.994317744922228-4.079170866408276-9.083886154733591-9.075602103047459-9.087353805286511l-239.141765129259511-.167477268880248c-4.995513645041683-.003561575559615-9.084780891402261,4.080716047946225-9.088613242509382,9.075033666712443l-.101035975953891,145.304525510688109Z"/>
  </g>
  <path class="cls-7" d="m355.284923057362903,468.757511185987823s20.747731290320189,62.445454483176036,33.885328346244023,97.310907832219527c9.038684325014401,23.987434333012061,20.459775978876678,41.482687251445896,32.472884924050049,45.612186105978253,8.507545466124611,2.924456511695098,22.349098607404812.903296472287366,34.349930748275256-13.702426681789802,25.127860842182599-30.582094192045588,59.603478612250001-89.956769240496214,59.603478612250001-89.956769240496214l-1.566823213866883-17.25480239362696-34.659729103203972-72.314761430684484s18.419431406031435-16.608096128059515,5.820972755968796,7.594206015481177c-24.390185728139841,46.854830477743235-52.033928730001207,108.901023551708022-52.033928730001207,108.901023551708022,0,0-19.683307780605901-30.273783162558175-31.022586621555092-55.947662570906687-4.658336163935019-12.865777328121112-8.130044414747317-5.99057162714962-8.130044414747317-5.99057162714962l-38.719483303413654-4.251329560733211Z"/>
  <g>
    <path class="cls-3" d="m706.924435189061114,677.90848028497112h-226.585688792396468c12.342284809085868-39.474633832514883,37.049860663855725-60.493285901940908,37.049860663855725-60.493285901940908l-.321736607597813-28.465448208955422c-.034509354901274-2.401837073023671,1.896120713578966-4.366906355440733,4.286454668301303-4.378409473742067l2.424773168659158-.011503118299515h.05744545053949l146.671071022643446-1.172195811243v.034509354903093l1.815739167401262,34.498693475816253s23.888122630907674,17.851885559477523,34.602081258593898,59.987639683461566Z"/>
    <path class="cls-4" d="m768.587303849384625,353.140395928444377l-23.978733087156797.000005042576959s4.240567717077283-11.284279289679034,1.290631203320117-24.374716414636168c-3.119934920408014-13.844810462564055-14.934176534840844-23.23090587065235-14.934176534840844-23.23090587065235,0,0,7.559264278273986,8.849870374564489,8.436449046956113,24.261768500799008.599067904100593,10.525460357178417-1.2534092489459,18.220746379991397-3.625706518245352,23.343848741912552h-259.304877157394913c-.790902673702476-1.665598723401672-2.624704276830016-6.309148308620024-2.624704276830016-13.526879693991759,0-20.559361998148233,8.950693411021348-30.435273935534497,9.244997106552546-30.906406299493938-.530075253412178.437450712819555-17.236584964134636,9.2365766937628-20.096650047027651,33.236601504882856-.656176069195681,5.551927286035607.117680403036502,9.640345755460658.487767813583559,11.196684488602841h-27.76867297075205s-19.019864090549163-42.868732223446386,14.351258642916036-67.659248956459123c27.432267211333965-20.366103256030328,38.729791277383811-3.516446527999506,65.951548169163289-28.517473580558544,23.411212044170497-21.501626726002542,32.731992865734355-98.801221437937784,32.731992865734355-98.801221437937784l64.210371106654748-10.633132959983413s15.343635095632635-25.446898178141055,45.93047646125342-13.282893099239118c29.577213335517627,11.76886180591373,33.371328109396927,45.804581021380727,33.076819037969472,78.183121926222157-.21872535640523,24.496213037480629,6.256297473405539,33.587158069832185,44.898844302508223,46.805377886883434,44.802468771234999,15.325306667384211,59.163052459739447,59.448935742453614,31.722364835635744,93.905470221072392Z"/>
    <path class="cls-4" d="m626.690316880582941,147.975422963550045s-1.481778635304181,20.571102350209003,10.74289510586641,43.046936399518017c8.225445374754599,15.123000346605295,27.41290475288497,22.475834049294463,27.41290475288497,22.475834049294463,0,0,4.44533590588162-21.713941369674103-2.593112611761171-34.285170583699255-7.038448517639154-12.571229213997867-25.931126117591702-27.809082806766128-35.562687246990208-31.237599865113225Z"/>
    <rect class="cls-11" x="566.516738450107368" y="304.019494876496537" width="55.619139554493813" height="57.128426940768804"/>
    <path class="cls-7" d="m586.535778089653832,318.965135961739179h-.118437646058737c-25.743197822222101,0-56.81623970844521-18.891394247239077-59.514562746182492-59.952846377928836l-2.951254428921857-53.535587426313214c-.011263921338468-.204326892038807-.017160780991617-.410220681541432-.016108972139591-.614844578200064.173694588687795-33.79137161732433,28.895443013056138-58.305529894034407,62.481926125696191-58.305529896633743h.118437667120816c33.688529448968438-.000000002587512,64.489859343909302,26.888609116738735,62.061368609959572,62.964675227118278l-3.507819949042641,54.386029312139726c-2.336774558751131,39.842056785673776-37.668540267677599,55.058103739817852-58.553548660431261,55.058103739817852Z"/>
    <path class="cls-7" d="m645.48196708992873,238.569254070742318s8.810307348032438-10.585429394220228,20.715328335011691-2.369886740161746c11.401206993595224,8.311942389304932,7.02068876575413,28.177214408861801-2.883243974418292,32.827562245458466-9.354796742159124,4.39250345621349-19.536183540297316-.643751302194687-21.937187794416786-9.752890542720706"/>
    <path class="cls-7" d="m569.427073110988204,230.891918326593441l-7.40725152012692,25.925380320481054c-.862747547167601,3.019616415026576,1.404573192236057,6.025471503004155,4.545021667220681,6.025471503004155h12.44748539995453"/>
    <path class="cls-4" d="m649.657885727606299,231.63537549438206c0,6.690901070167456-5.289435077443159,12.180885920023684-11.975875755167181,12.425156658970081-13.567031861372016.495634233252531-37.866723919158176,1.178397410497382-68.781064163675182,1.178397410497382-40.748908175076394,0-42.971576128013112-1.68243954897207-42.971576128013112-1.68243954897207l-1.852223294125906-31.487795999945774s9.631561129412148,1.682439548960247,45.564699706778811,1.682439548960247c47.787354316602432,0,80.016039634202571-1.682439548960247,80.016039634202571-1.682439548960247v19.566681479450381Z"/>
    <path class="cls-11" d="m560.141980999524094,229.181659451511223l-27.102691975700509-7.527478790851092c-1.038684277006723-.288483294295474-1.980407739457405.764195693902366-1.776157435549976,1.994063777634437.700798946282703,4.219774662112286,3.199628172545999,12.351627551126512,12.089635370904034,14.233356372023081,10.359070511978643,2.192682312318539,15.49323612876924-2.813590437021958,17.603858441792909-5.91226574715165.680266545124141-.998722099481711.251405320053891-2.491591861939924-.814644401446458-2.787675611654777Z"/>
    <path class="cls-11" d="m580.535558603982281,229.181659450889128l27.102691976034293-7.527478789643283c1.038684277020366-.288483294259095,1.980407739418297.764195694012415,1.776157435477216,1.994063777696283-.70079894648461,4.219774662114105-3.199628173119891,12.351627551010097-12.089635371550685,14.233356371514674-10.35907051209324,2.192682311845601-15.493236128659191-2.813590437745916-17.603858441518241-5.912265747933816-.68026654509049-.998722099522638-.251405319945661-2.491591861967208.814644401557416-2.787675611633858Z"/>
    <path class="cls-4" d="m624.004593104118612,170.260783842921228c-7.223670847053654,17.999714556430263-28.339016399966567,38.570816906642904-41.397190623462848,33.142331564236883-16.56956626482679-6.888225417970716-8.057171329402081-24.856748673169932-8.057171329402081-24.856748673169932,0,0-38.079346965292643,62.071159757083478-76.774655541046741,34.951826678374346-20.374456235254002-14.279293415137545-12.815425375168161-51.609905750504367,13.706452376450216-72.951224075275604,65.568704611659996-52.761068064894971,120.024069458619124,3.99993656807419,120.024069458619124,3.99993656807419,0,0-1.459141929070029,10.657710378775846-7.50150434115767,25.713877937760117Z"/>
    <path class="cls-7" d="m694.437354873895856,483.109740353864254c.440095437436867-2.156209086392664.880269225495795-4.312418172785328,1.31010073159905-6.470664375320666,3.548342918041271-17.817322939354199,1.470228434695855-35.937784430863758.334301133295412-54.172089374498682-1.093304563643869-17.550852477771514-14.050702116451248-33.313352636135278-23.302186727754815-48.08863436952106-24.711109224561369-10.911398878379259-37.831412695863037-12.142543568860674-37.831412695863037-12.142543568860674l-.914116693712458-29.778877175994239c-.108907363011895-3.48503561637699-3.024412316272901-6.220804245358522-6.509369582030558-6.107901000683341l-67.23674200239293,2.55916632953722c-3.43050358425171.111101180395963-6.14268867635019,2.944573033604684-6.1036700671566,6.376643630273975l.300239579181834,28.479118726349952s-27.64405780909965,1.505428829432276-52.910174274739802,17.542704013201728c-2.796725412018532,3.379497330063714-5.18007294832023,7.13037660306054-7.114314725782606,11.23485222805084-3.566285210223214,7.567651418145033-12.983297695272086,17.229759212249519-13.722144050092538,25.603873571029908-.847205263488831,9.601790237218665,16.318427787736255,35.122930503228417,17.525105699784035,44.67465469371291,1.877045824226116,14.857784937164979-3.577703614683742,13.505551463294069,1.679231292711847,27.759801567884097,1.569284585440982-1.39832353069869,2.463891974554826-2.20760709368551,2.463891974554826-2.20760709368551,0,0,11.91603252591176,79.730453655992278,17.47265855814112,94.363058908771563,3.001847337461186,7.904794139758451,149.821743828607396,4.074859090302198,152.414835976980612,0,10.13321674348299-15.923769801538583,13.97616477511292-62.071100596001997,19.053852437955356-93.681878610912463.387600521453351-2.412729019126346,1.521725758571847-4.43480184258442,3.08991343532125-5.943678099335557Z"/>
    <path class="cls-7" d="m497.451258119544946,442.176203562945375c-2.348551883569598,8.577373898672704-6.930333234631689,26.572964329734532-4.934223216325336,43.340288483492259,2.872968147506072,24.132932439046272,20.398073847290107,39.934257250328301,43.513567074915954,40.010592699214612,9.798438535255627.03235787342237,19.979028984961587-3.523897225892142,26.284952473437443-9.341182574301456"/>
    <g>
      <path class="cls-5" d="m598.397024937038623,272.0549772118693s-7.810056275589886,16.124963414197737-20.431185449701843,16.720390438628783c-12.168712332061659.574083354586037-19.647789823106905-13.501478631042119-19.647789823106905-13.501478631042119,0,0,3.540859768054361-.155749457415368,8.966116577878893-.510865395286601,5.767071490068702-.377489780299584,8.968158955790386,4.060835855313599,8.968158955790386,4.060835855313599,0,0-.142833335547948-5.594404030550322,9.549899242796528-6.360481548224925,8.135360257991124-.642988604256061,12.594800496342941-.408400719388737,12.594800496342941-.408400719388737Z"/>
      <path class="cls-11" d="m565.202452521859414,279.805814228999225c-.568424585208049-.287812468704942-.288114356136248-1.154035439783911.340951757816583-1.052949582705878,2.456151873713679.394683820553837,6.109365712693034.761251196367994,10.500957474566349.523867857899859,6.271135913633771-.338980319670554,12.001163163755336-1.976621431739659,15.324354129949825-3.116296738797246.607077011356523-.208194679859844,1.019892560811059.598456620815341.507774829871778.985267882407243-2.917315688407143,2.203498324175598-8.186048812272929,5.376288607076276-14.626600164065167,5.670295084629288-4.669060882744816.213139228082582-9.18972328365362-1.563227498298147-12.047438028139368-3.010184503433265Z"/>
    </g>
  </g>
  <g>
    <path class="cls-6" d="m540.152054722727371,425.567223368486339h88.244366389470088c10.200364993893345,0,19.489983113332528-4.17542413211504,26.215498493920677-10.900939512704099,6.72551538058724-6.725515380588149,10.90093951270137-16.001122009649407,10.90093951270137-26.201487003542752,0-20.414741478160067-16.701696528461071-37.116438006622957-37.116438006622047-37.116438006622957h-215.384630063347686c-10.200364993890616,0-19.475971622952784,4.17542413211595-26.201487003541843,10.900939512705008-6.725515380588149,6.725515380589059-10.900939512703189,16.015133500026423-10.900939512703189,26.215498493917949,0,20.400729987784871,16.70169652846198,37.102426516246851,37.102426516245032,37.102426516246851h99.341466767444217"/>
    <g>
      <polygon class="cls-1" points="434.798845049505871 383.502633567420162 431.784452700505426 378.28157256931172 423.218554442117238 383.227099266769073 423.218554442117238 373.336045871843453 417.189769744141813 373.336045871843453 417.189769744141813 383.227099266769073 408.623871485769996 378.28157256931172 405.609479136769551 383.502633567420162 414.175377395149553 388.448199514788939 405.609479136769551 393.393726212249931 408.623871485769996 398.614787210357463 417.189769744141813 393.66929976280062 417.189769744141813 403.560353157728059 423.218554442117238 403.560353157728059 423.218554442117238 393.66929976280062 431.784452700505426 398.614787210357463 434.798845049505871 393.393726212249931 426.232946791109498 388.448199514788939 434.798845049505871 383.502633567420162"/>
      <polygon class="cls-1" points="484.761749096418498 383.502633567420162 481.747356747436243 378.28157256931172 473.181458489052602 383.227099266769073 473.181458489052602 373.336045871843453 467.152673791078087 373.336045871843453 467.152673791078087 383.227099266769073 458.586775532682623 378.28157256931172 455.572383183704915 383.502633567420162 464.138281442085827 388.448199514788939 455.572383183704915 393.393726212249931 458.586775532682623 398.614787210357463 467.152673791078087 393.66929976280062 467.152673791078087 403.560353157728059 473.181458489052602 403.560353157728059 473.181458489052602 393.66929976280062 481.747356747436243 398.614787210357463 484.761749096418498 393.393726212249931 476.195850838043953 388.448199514788939 484.761749096418498 383.502633567420162"/>
      <polygon class="cls-1" points="534.724653143353862 383.502633567420162 531.710260794363421 378.28157256931172 523.144362535975233 383.227099266769073 523.144362535975233 373.336045871843453 517.115577838006175 373.336045871843453 517.115577838006175 383.227099266769073 508.549679579610711 378.28157256931172 505.535287230625727 383.502633567420162 514.101185489023919 388.448199514788939 505.535287230625727 393.393726212249931 508.549679579610711 398.614787210357463 517.115577838006175 393.66929976280062 517.115577838006175 403.560353157728059 523.144362535975233 403.560353157728059 523.144362535975233 393.66929976280062 531.710260794363421 398.614787210357463 534.724653143353862 393.393726212249931 526.15875488497386 388.448199514788939 534.724653143353862 383.502633567420162"/>
      <polygon class="cls-1" points="584.687557190275584 383.502633567420162 581.673164841284233 378.28157256931172 573.10726658290514 383.227099266769073 573.10726658290514 373.336045871843453 567.078481884919711 373.336045871843453 567.078481884919711 383.227099266769073 558.512583626546984 378.28157256931172 555.498191277555634 383.502633567420162 564.064089535936546 388.448199514788939 555.498191277555634 393.393726212249931 558.512583626546984 398.614787210357463 567.078481884919711 393.66929976280062 567.078481884919711 403.560353157728059 573.10726658290514 403.560353157728059 573.10726658290514 393.66929976280062 581.673164841284233 398.614787210357463 584.687557190275584 393.393726212249931 576.121658931902857 388.448199514788939 584.687557190275584 383.502633567420162"/>
      <polygon class="cls-1" points="634.650461237204581 383.502633567420162 631.636068888213231 378.28157256931172 623.07017062984778 383.227099266769073 623.07017062984778 373.336045871843453 617.041385931858713 373.336045871843453 617.041385931858713 383.227099266769073 608.475487673490534 378.28157256931172 605.461095324491907 383.502633567420162 614.026993582864634 388.448199514788939 605.461095324491907 393.393726212249931 608.475487673490534 398.614787210357463 617.041385931858713 393.66929976280062 617.041385931858713 403.560353157728059 623.07017062984778 403.560353157728059 623.07017062984778 393.66929976280062 631.636068888213231 398.614787210357463 634.650461237204581 393.393726212249931 626.084562978832764 388.448199514788939 634.650461237204581 383.502633567420162"/>
    </g>
  </g>
  <g>
    <circle class="cls-12" cx="137.131093951702496" cy="475.006380298690146" r="75.982871808096434"/>
    <path class="cls-8" d="m92.330744642379614,512.666698539367644c6.823590556185991-18.105763544801448,24.307467526802611-30.977778439923895,44.800185931836495-30.977778439923895,20.492718405037522,0,37.980952644887111,12.872014895122447,44.804569932789491,30.977778439923895"/>
    <circle class="cls-8" cx="137.442385072399475" cy="451.094387466267563" r="22.150015800714186"/>
  </g>
  <path class="cls-7" d="m341.4724645912911,399.256500071349365s-.949598721706025.300015162934869-1.941975529621232,3.598117945644844c-2.871976160635313,9.544834675422862-1.435492086881823,13.854286896681515,3.879498986004364,31.953986225966219,4.470505554038937,15.223883778618983,20.541722254665729,59.039495431243267,20.541722254665729,59.039495431243267,0,0,5.740902007453769,3.485884596602773,17.42966967184293.769589220097259,18.147252554769693-4.217150997104,20.75305276868221-15.618276825914108,20.75305276868221-15.618276825914108-3.851081957076531-10.91139887837835-7.274265918919809-17.11591980922185-7.274265918919809-17.11591980922185,0,0,3.075933839600111-5.266649694985972,3.665121055217242-13.703644877640727.281373253575111-4.029185837730438-.574823869728789-32.339137689802556-3.333777574282976-33.820563624480201-1.686002580177046-.905284180861599-10.028542079992803,14.304725676904127-9.65340763354925,2.815843028059135.236599235883659-7.244793197033687,2.628235491964915,2.732131950158873-2.051069332580482.22789659251066-2.865924130015628-1.5337638405299.920208697561975-2.954858653858537-1.367379555056687,2.278965925090233-2.146250330656585,4.91045437063076-2.8282653972974-6.237474605757598-2.8282653972974-6.237474605757598"/>
  <path class="cls-7" d="m376.939274822949301,473.332245203548155s14.35051452762491-.580153306735156,19.418534984301914-14.657987908612085"/>
  <path class="cls-7" d="m339.371513324077569,403.409788568978001c1.270960622965504-4.352440888344063,3.891771436820818-7.315096590963549,8.221806694493353-8.112734664745403,17.399463143515277-3.205164263278675,37.613380276103271-.786005255495184,38.326072325482528-.661284146854086,4.557931850182285.797638073782764,6.267156293999506,4.785828442691127,5.617976367453593,8.418340020607502-.739549217961212,4.138176469754399-4.262425446805537,5.799132210580865-8.87710720305131,5.641695164423254-3.14491246245052-.107293580491387-18.728755381521296.696835914546682-32.332182379775986,4.26323488127764"/>
  <path class="cls-7" d="m350.328079128679747,412.959039823686908c10.205103593895728-6.118356055500044,11.459267249107143-7.336377189501036,32.475264432541735-6.381104590255745,7.520587552797224.341844888765081,10.993593616047292.35463704727681,15.205183076519461.863634344646925,5.5481967854912.670534769752521,7.272805218003668,3.483709919563807,7.142966245854041,6.907900909481214-.156549190130136,4.128608825903029-3.330729107885418,7.438867451181068-7.309033998561063,7.412977772838531-1.078699988486733-.007019873150966-1.731433869911598,2.978102137887618-4.928525925647591-.758929764410823-1.07325811150713-1.254522631618784-2.986089776886729-2.239552325550903-16.871760201132929-.96316983804445-3.217220703882958.29572587911116-4.623041342890247-.357967110226127-10.592200924671488,2.656029679028507-1.104829783339483.557892330921277-10.269835756639623,4.731519740855219-10.269835756639623,4.731519740855219m42.777789869172011-19.984346448478391c-.057371157829039.002945317522972-.106889536024028.006125976990006-.146311483214049.009609218963305.049557890426513-.004345647392256.097954442930131-.007559927146758.146311483214049-.009609218963305Z"/>
  <path class="cls-7" d="m363.753171450180162,442.16652259541479c1.55812083595265-.74513512348949,11.110685923886194-6.532092929444843,16.428377247784738-8.068339892435688,6.951825049005492-2.006219770105417,23.245676465622637-4.853763000698564,23.377874396161133-4.882715729131633,4.489514662798683-.983250632991258,7.509542628290546.819803151132874,8.671196434895137,4.579370673595804,1.160531980950509,3.759533902164549-.838498503119808,7.80338400052824-4.465808377830399,9.032275605812174-.539623782006856.183243303553354-14.953906578964961,3.081070440488475-22.201768129281845,5.174044328091441-3.201487052529046.924454391727522-3.886059240051509,2.076121177886307-9.404358279341977,5.215219480008273"/>
  <path class="cls-7" d="m355.18013607694229,427.427898077826285c11.772827497298749-6.346835744244345,17.956659139638759-7.650723892355018,20.558413116497832-8.144727812013116,13.502873106160223-2.56383666572674,29.301705313386265-2.496239144359606,30.236163671638678-2.600011569570597,3.795520688542638-.427354921822371,7.173318974643735,2.422542766147672,7.554275017928376,6.354630268555411.383199694613722,3.932154742959938-2.32309833171621,6.705745509755616-6.112812330805355,7.127443593322823-6.12984555283947.68275895755869-23.109008675959558,3.434615995332933-28.438609169085794,4.527360658879843-2.089644611168296.689555901746644-8.053377039057523,3.607237153760252-15.224394932935866,7.473929378414141"/>
  <path class="cls-8" d="m436.47322178329523,567.253373338613528s7.060316921304548-18.292639296105335-4.782454629634231-34.856345068954397"/>
  <path class="cls-7" d="m539.388911896172431,437.302210102317986l-9.537934481209959,7.419803796561609-23.222027117714788-2.028262522509067s-6.174577379046241-8.754820025596018-9.345348655106136-17.060377591114047h25.468574469970008l7.984555071806426,8.664951863457645,8.652180712254449,3.00388445360386Z"/>
  <path class="cls-7" d="m663.794056826329324,491.194504932457676c2.56738797138496,21.180950763909095,4.706877947538487,34.445788616056234,4.706877947538487,34.445788616056234,0,0-42.965474641133369-35.239755651316955-63.076251673674051-51.902970906849077-17.009468144463426-14.093559319699125-22.6964483652946-18.961589773539345-35.612452589978602-29.786830846429439-8.131051816752915-6.814847267106416-14.567730938696513-11.080579855555698-25.367032065321837-15.467744520652559-9.149080349824544-3.716796752917617-16.709366809609492-6.647971830353526-22.835993608679928-9.674342912147949-9.336886788052652-4.612265998861403-15.822124378854824-7.819627014870093-20.698667021916663-4.162298383194866-4.049708541002474,3.037340168718401-3.03726181809634,8.999430663958265,5.624634371146385,14.174097419438112,8.936045011671922,5.338419553098902,10.799301126624414,5.962090495239863,16.086479373675502,8.886919172385205.265530254135228.146907414134148.511159450567902.280573573341826.766739175852308.420742834081466-4.529606093841721-1.241778990197417-12.803510008526246,2.504085843063876-12.803510008526246,2.504085843063876-10.349255160338544-5.624634371146385-16.986336254390153-8.661974539863877-25.985766918347508-12.880450318222756-4.995400534924556-2.341586655375977-16.881581474284758-7.065110535873828-20.754844417082495-8.436951556720487-8.099495432624281-2.868494580737206-13.836641295342815,4.302859397039356-6.833976204302417,9.027558536851757,7.79941255468475,5.26226274961391,19.098042188125874,11.853508730457179,29.420031332400868,19.634665590478107,10.430034650456037,7.862641505727879,19.576372728549359,16.206669226093254,25.834393518822253,20.699607229365938,4.726422853472286,3.39336538995849,28.186949261121299,9.528062302982107,36.28644469374467,12.56540247169869,8.099495432624281,3.03726181809634,13.330339583268142,7.424426483192292,17.211359237533543,10.967990013361486,3.881019654264492,3.543485179548952,24.078477754464075,28.655564324554689,41.121148105261454,50.760389939257948,14.774576577798143,19.163073203450949,41.02242632296111,46.327559795555317,61.777349090664757,60.50165721499252,20.754844417081586,14.174097419438112,31.598716325308487,13.297428117388336,41.773919141318402,8.389919218195246,23.890249011826199-11.522287245717962,25.079271750386397-44.623729510103658,21.208812074155503-87.751708759536086-2.681436937673425-29.878868734060234-6.895123554015299-64.737548923795657-10.34268533102113-81.975357808829358-4.486261674244815-22.431308371219529-15.573349405806766-52.779890951510424-52.479551494438965-69.467912765499932"/>
  <line class="cls-7" x1="534.08747702207711" y1="447.655883917752362" x2="523.388390734970926" y2="438.127865405144803"/>
  <path class="cls-7" d="m685.67034183249234,551.956020255192925s-1.925540978538265-13.318325101551636-17.169407058624529-26.315726706679015"/>
  <path class="cls-7" d="m565.762521969213594,492.209773215021414s9.208698767420174.489139200179125,18.402196839438147-7.842468427586027c11.298864351489101-10.239595818536145,11.204575775273042-18.674292958787191,11.204575775273042-18.674292958787191"/>
  <line class="cls-7" x1="517.025044462260666" y1="444.018750958291093" x2="509.429855046918419" y2="439.95372000360112"/>
  <g>
    <line class="cls-9" x1="416.933600950257642" y1="143.941192426870657" x2="416.933600950257642" y2="123.589189018746765"/>
    <line class="cls-9" x1="416.933600950257642" y1="190.911337697029921" x2="416.933600950257642" y2="170.999517568719966"/>
    <line class="cls-9" x1="403.339705544070057" y1="157.250263357887889" x2="383.272526611123794" y2="157.250263357887889"/>
    <line class="cls-9" x1="450.594675289399675" y1="157.250263357887889" x2="430.38076859650937" y2="157.250263357887889"/>
  </g>
</svg>